<svg xmlns="http://www.w3.org/2000/svg" xmlns:xlink="http://www.w3.org/1999/xlink" viewBox="0 0 64 64"><defs><style>.cls-1{isolation:isolate;}.cls-2{fill:url(#linear-gradient);}.cls-3{fill:url(#linear-gradient-4);}.cls-4{fill:url(#linear-gradient-5);}.cls-5{fill:url(#linear-gradient-6);}.cls-6{fill:url(#linear-gradient-7);}.cls-7{fill:url(#linear-gradient-8);}.cls-8{fill:url(#linear-gradient-9);}.cls-9{fill:url(#linear-gradient-10);}.cls-10{fill:url(#linear-gradient-11);}.cls-11{fill:url(#linear-gradient-12);}.cls-12,.cls-48,.cls-50{opacity:0.49;mix-blend-mode:color-burn;}.cls-12{fill:url(#linear-gradient-13);}.cls-13{fill:url(#linear-gradient-14);}.cls-14{fill:url(#linear-gradient-15);}.cls-15{fill:#1b1c37;}.cls-16{fill:url(#linear-gradient-16);}.cls-17{fill:#e2a07a;}.cls-18{fill:url(#linear-gradient-17);}.cls-19{fill:url(#linear-gradient-18);}.cls-20{fill:url(#linear-gradient-19);}.cls-21{fill:url(#linear-gradient-20);}.cls-22{fill:url(#linear-gradient-21);}.cls-23{fill:url(#linear-gradient-22);}.cls-24{fill:url(#linear-gradient-23);}.cls-25{fill:#fff;}.cls-26{fill:url(#linear-gradient-24);}.cls-27{fill:url(#linear-gradient-25);}.cls-28{fill:url(#linear-gradient-26);}.cls-29{fill:url(#linear-gradient-27);}.cls-30{fill:url(#linear-gradient-28);}.cls-31{fill:url(#linear-gradient-29);}.cls-32{fill:url(#linear-gradient-30);}.cls-33{fill:url(#linear-gradient-31);}.cls-34{fill:url(#linear-gradient-32);}.cls-35{fill:url(#linear-gradient-33);}.cls-36{fill:url(#linear-gradient-34);}.cls-37{fill:none;stroke:#282a49;stroke-linecap:round;stroke-miterlimit:10;stroke-width:0.25px;}.cls-38{fill:url(#linear-gradient-35);}.cls-39{fill:url(#linear-gradient-36);}.cls-40{fill:url(#linear-gradient-37);}.cls-41{fill:url(#linear-gradient-38);}.cls-42{fill:url(#linear-gradient-39);}.cls-43{fill:url(#linear-gradient-40);}.cls-44{fill:url(#linear-gradient-41);}.cls-45{fill:url(#linear-gradient-42);}.cls-46{fill:url(#linear-gradient-43);}.cls-47{fill:url(#linear-gradient-44);}.cls-48{fill:url(#linear-gradient-45);}.cls-49{fill:url(#linear-gradient-46);}.cls-51{fill:url(#linear-gradient-47);}.cls-52{fill:#3d6fd3;}.cls-53{fill:url(#linear-gradient-48);}.cls-54{fill:url(#linear-gradient-49);}.cls-55{fill:url(#linear-gradient-50);}.cls-56{fill:#f4f4f4;}.cls-57{fill:url(#linear-gradient-51);}.cls-58{fill:url(#linear-gradient-52);}.cls-59{fill:#e4e4ea;}.cls-60{fill:url(#linear-gradient-53);}.cls-61{fill:url(#linear-gradient-54);}.cls-62{fill:url(#linear-gradient-55);}.cls-63{fill:url(#linear-gradient-56);}.cls-64{fill:url(#linear-gradient-57);}.cls-65{fill:url(#linear-gradient-58);}.cls-66{fill:url(#linear-gradient-59);}.cls-67{fill:url(#linear-gradient-60);}.cls-68{fill:url(#linear-gradient-61);}.cls-69{fill:url(#linear-gradient-62);}</style><linearGradient id="linear-gradient" x1="32" y1="70.5" x2="32" y2="53.51" gradientUnits="userSpaceOnUse"><stop offset="0" stop-color="#d1efe7"/><stop offset="0.53" stop-color="#97efe7"/><stop offset="1" stop-color="#3ccbe3"/></linearGradient><linearGradient id="linear-gradient-4" x1="32" y1="52.86" x2="32" y2="19.43" xlink:href="#linear-gradient"/><linearGradient id="linear-gradient-5" x1="33.62" y1="31" x2="41.37" y2="60.96" xlink:href="#linear-gradient"/><linearGradient id="linear-gradient-6" x1="43.59" y1="32.43" x2="2.73" y2="-3.9" xlink:href="#linear-gradient"/><linearGradient id="linear-gradient-7" x1="40.14" y1="45.02" x2="40.14" y2="15.47" xlink:href="#linear-gradient"/><linearGradient id="linear-gradient-8" x1="61.89" y1="37.02" x2="55.75" y2="25.48" xlink:href="#linear-gradient"/><linearGradient id="linear-gradient-9" x1="16.96" y1="23.22" x2="-2.28" y2="-26.37" xlink:href="#linear-gradient"/><linearGradient id="linear-gradient-10" x1="19.61" y1="23.24" x2="25.28" y2="-3.51" gradientUnits="userSpaceOnUse"><stop offset="0.07" stop-color="#fff"/><stop offset="0.79" stop-color="#d1d3d4"/></linearGradient><linearGradient id="linear-gradient-11" x1="14.32" y1="22.12" x2="19.99" y2="-4.63" xlink:href="#linear-gradient"/><linearGradient id="linear-gradient-12" x1="44.62" y1="53.09" x2="44.62" y2="44.26" xlink:href="#linear-gradient"/><linearGradient id="linear-gradient-13" x1="40.18" y1="46.35" x2="40.18" y2="43.47" gradientUnits="userSpaceOnUse"><stop offset="0" stop-color="#fff" stop-opacity="0"/><stop offset="1"/></linearGradient><linearGradient id="linear-gradient-14" x1="2.64" y1="45.19" x2="22.34" y2="36.77" gradientUnits="userSpaceOnUse"><stop offset="0" stop-color="#3db6d3"/><stop offset="0.5" stop-color="#3d6fd3"/><stop offset="1" stop-color="#252784"/></linearGradient><linearGradient id="linear-gradient-15" x1="-9.16" y1="51.33" x2="17.09" y2="38.25" xlink:href="#linear-gradient-14"/><linearGradient id="linear-gradient-16" x1="23.59" y1="60.79" x2="25.59" y2="56.66" gradientUnits="userSpaceOnUse"><stop offset="0" stop-color="#7ff1a4"/><stop offset="0.52" stop-color="#2fbca4"/><stop offset="1" stop-color="#2f7da4"/></linearGradient><linearGradient id="linear-gradient-17" x1="9.18" y1="46.28" x2="31.87" y2="46.28" gradientUnits="userSpaceOnUse"><stop offset="0" stop-color="#182ebd"/><stop offset="0.58" stop-color="#0d1226"/></linearGradient><linearGradient id="linear-gradient-18" x1="16.28" y1="60.07" x2="31.15" y2="34.01" xlink:href="#linear-gradient-17"/><linearGradient id="linear-gradient-19" x1="36.44" y1="31.11" x2="30.1" y2="42.24" gradientUnits="userSpaceOnUse"><stop offset="0" stop-color="#f9d5c5"/><stop offset="1" stop-color="#f78e6b"/></linearGradient><linearGradient id="linear-gradient-20" x1="32.02" y1="32.59" x2="8.58" y2="33.4" gradientUnits="userSpaceOnUse"><stop offset="0" stop-color="#13beb0"/><stop offset="0.5" stop-color="#136690"/><stop offset="0.92" stop-color="#0d1226"/></linearGradient><linearGradient id="linear-gradient-21" x1="32.97" y1="34.91" x2="9.59" y2="31.91" xlink:href="#linear-gradient-20"/><linearGradient id="linear-gradient-22" x1="33.32" y1="32.14" x2="9.95" y2="29.14" xlink:href="#linear-gradient-20"/><linearGradient id="linear-gradient-23" x1="22.18" y1="31.15" x2="9.64" y2="28.94" xlink:href="#linear-gradient-20"/><linearGradient id="linear-gradient-24" x1="13.88" y1="22.58" x2="11.48" y2="34.33" xlink:href="#linear-gradient-20"/><linearGradient id="linear-gradient-25" x1="17.68" y1="30.25" x2="9.31" y2="23.84" xlink:href="#linear-gradient-19"/><linearGradient id="linear-gradient-26" x1="9.2" y1="31.31" x2="16.33" y2="23.59" xlink:href="#linear-gradient-19"/><linearGradient id="linear-gradient-27" x1="20.5" y1="31.64" x2="14.25" y2="21.39" xlink:href="#linear-gradient-17"/><linearGradient id="linear-gradient-28" x1="15.12" y1="24.59" x2="11.96" y2="13.84" xlink:href="#linear-gradient-16"/><linearGradient id="linear-gradient-29" x1="20.65" y1="26.37" x2="12.28" y2="19.96" xlink:href="#linear-gradient-19"/><linearGradient id="linear-gradient-30" x1="18.13" y1="29.03" x2="15.6" y2="19.18" xlink:href="#linear-gradient-19"/><linearGradient id="linear-gradient-31" x1="19.85" y1="31.82" x2="13.6" y2="21.57" xlink:href="#linear-gradient-17"/><linearGradient id="linear-gradient-32" x1="20.9" y1="31.18" x2="14.65" y2="20.93" xlink:href="#linear-gradient-17"/><linearGradient id="linear-gradient-33" x1="17.47" y1="24.75" x2="18.33" y2="23.08" xlink:href="#linear-gradient-19"/><linearGradient id="linear-gradient-34" x1="7.29" y1="33.99" x2="35.41" y2="43.74" xlink:href="#linear-gradient-20"/><linearGradient id="linear-gradient-35" x1="4.82" y1="33.42" x2="31.64" y2="47.1" xlink:href="#linear-gradient-20"/><linearGradient id="linear-gradient-36" x1="7.97" y1="32.02" x2="36.1" y2="41.77" xlink:href="#linear-gradient-20"/><linearGradient id="linear-gradient-37" x1="17.12" y1="29.18" x2="-2.71" y2="52.43" xlink:href="#linear-gradient-20"/><linearGradient id="linear-gradient-38" x1="10.12" y1="27.38" x2="14.68" y2="41.38" xlink:href="#linear-gradient-20"/><linearGradient id="linear-gradient-39" x1="7.69" y1="23.88" x2="11.25" y2="23.13" xlink:href="#linear-gradient-19"/><linearGradient id="linear-gradient-40" x1="20.69" y1="27.03" x2="23.57" y2="27.03" xlink:href="#linear-gradient-19"/><linearGradient id="linear-gradient-41" x1="12.92" y1="29.44" x2="18.07" y2="28.13" xlink:href="#linear-gradient-19"/><linearGradient id="linear-gradient-42" x1="24.72" y1="28.2" x2="16.84" y2="24.99" xlink:href="#linear-gradient-16"/><linearGradient id="linear-gradient-43" x1="30.31" y1="30.63" x2="15.27" y2="24.25" xlink:href="#linear-gradient-16"/><linearGradient id="linear-gradient-44" x1="39.13" y1="56.25" x2="39.13" y2="44.79" xlink:href="#linear-gradient"/><linearGradient id="linear-gradient-45" x1="33.67" y1="46.41" x2="33.67" y2="43.37" xlink:href="#linear-gradient-13"/><linearGradient id="linear-gradient-46" x1="11.45" y1="47.75" x2="20.59" y2="45.85" xlink:href="#linear-gradient-17"/><linearGradient id="linear-gradient-47" x1="5.65" y1="49.66" x2="4.66" y2="48.59" xlink:href="#linear-gradient-13"/><linearGradient id="linear-gradient-48" x1="31.49" y1="56.28" x2="44.4" y2="30.86" xlink:href="#linear-gradient-16"/><linearGradient id="linear-gradient-49" x1="43.47" y1="54.25" x2="45.3" y2="41" xlink:href="#linear-gradient-16"/><linearGradient id="linear-gradient-50" x1="10.23" y1="29.86" x2="6.82" y2="21.69" xlink:href="#linear-gradient-20"/><linearGradient id="linear-gradient-51" x1="37.03" y1="61.75" x2="44.91" y2="33.63" xlink:href="#linear-gradient-14"/><linearGradient id="linear-gradient-52" x1="58.79" y1="56.85" x2="57.37" y2="45.1" xlink:href="#linear-gradient-14"/><linearGradient id="linear-gradient-53" x1="-6.36" y1="95.99" x2="0.2" y2="119.52" gradientTransform="translate(97.89 -62.12) rotate(24.43)" xlink:href="#linear-gradient-16"/><linearGradient id="linear-gradient-54" x1="-6.86" y1="96.39" x2="1.45" y2="112.76" gradientTransform="translate(97.89 -62.12) rotate(24.43)" xlink:href="#linear-gradient-16"/><linearGradient id="linear-gradient-55" x1="423.27" y1="97.04" x2="413.9" y2="109.07" gradientTransform="matrix(-0.91, -0.41, -0.41, 0.91, 474.79, 109.11)" xlink:href="#linear-gradient-16"/><linearGradient id="linear-gradient-56" x1="360.43" y1="30.45" x2="364.19" y2="43.92" gradientTransform="matrix(-1, 0, 0, 1, 413.96, 0)" xlink:href="#linear-gradient-16"/><linearGradient id="linear-gradient-57" x1="360.15" y1="30.68" x2="364.91" y2="40.06" gradientTransform="matrix(-1, 0, 0, 1, 413.96, 0)" xlink:href="#linear-gradient-16"/><linearGradient id="linear-gradient-58" x1="55.22" y1="31.05" x2="49.85" y2="37.94" xlink:href="#linear-gradient-16"/><linearGradient id="linear-gradient-59" x1="67.36" y1="43.35" x2="71.98" y2="59.92" gradientTransform="translate(-14.26 -21.57) rotate(5.99)" xlink:href="#linear-gradient-16"/><linearGradient id="linear-gradient-60" x1="67.01" y1="43.63" x2="72.86" y2="55.16" gradientTransform="translate(-14.26 -21.57) rotate(5.99)" xlink:href="#linear-gradient-16"/><linearGradient id="linear-gradient-61" x1="348.68" y1="44.09" x2="342.08" y2="52.56" gradientTransform="matrix(-0.99, -0.1, -0.1, 0.99, 397.44, 21.65)" xlink:href="#linear-gradient-16"/><linearGradient id="linear-gradient-62" x1="50.68" y1="54" x2="50.68" y2="31.46" xlink:href="#linear-gradient"/></defs><title>computer</title><g class="cls-1"><g id="Layer_1" data-name="Layer 1"><circle class="cls-2" cx="32" cy="32" r="28"/><circle class="cls-2" cx="32" cy="32" r="28"/><circle class="cls-2" cx="32" cy="32" r="28"/><path class="cls-3" d="M4.08,34c0,.34,0,.68.08,1,0,.18,0,.36.07.54s.08.62.13.93.07.37.1.55.11.6.17.9.08.36.12.54.14.6.22.89l.14.51q.13.46.28.9l.16.46q.16.47.34.93l.16.4q.2.5.42,1l.14.31q.25.54.53,1.08l.1.19A28.14,28.14,0,0,0,13.52,53h37a28.14,28.14,0,0,0,6.27-7.93l.1-.19q.28-.53.53-1.08l.14-.31q.22-.49.42-1l.16-.4q.18-.46.34-.93l.16-.46q.15-.45.28-.9l.14-.51c.08-.29.15-.59.22-.89s.09-.36.12-.54.12-.6.17-.9.07-.37.1-.55.09-.62.13-.93,0-.36.07-.54c0-.34.06-.68.08-1,0-.16,0-.31,0-.47,0-.5,0-1,0-1.51A28,28,0,0,0,4,32c0,.51,0,1,0,1.51C4,33.66,4.07,33.82,4.08,34Z"/><path class="cls-4" d="M60,32a28.21,28.21,0,0,0-.33-4.31l-.25.1L12.05,51.64q.71.72,1.47,1.38h37A27.93,27.93,0,0,0,60,32Z"/><path class="cls-5" d="M41.75,58.25a27.94,27.94,0,0,0,7-3.84V9.58a27.94,27.94,0,0,0-7-3.84Z"/><path class="cls-6" d="M36.62,59.61a27.78,27.78,0,0,0,7-2.15V6.54a27.78,27.78,0,0,0-7-2.15Z"/><path class="cls-7" d="M59.95,30.32a3.18,3.18,0,0,1-.56.78,3.2,3.2,0,0,0-.94,2.26.87.87,0,0,0,1.38.69l.09-.06c0-.66.08-1.32.08-2S60,30.88,59.95,30.32Z"/><path class="cls-8" d="M6.14,21.25c1.87-1.82,3-2.69,2.8-1.56-.9,4.51,9.93,2.78,10,6.48l3.6-.41s5.34-12.36-4.34-18.15A28.1,28.1,0,0,0,6.14,21.25Z"/><path class="cls-9" d="M19,26.17h0L19,26S19,26.13,19,26.17Z"/><path class="cls-10" d="M19.75,23.56c-2.88-.65-.06-1.1-.86-7.35S7.95,19.63,7.95,19.63c.75-.57,1.13-.63,1,.06-.85,4.27,8.83,2.94,9.94,5.95C19,24.59,22.52,24.19,19.75,23.56Z"/><path class="cls-11" d="M40.87,47.56V43.17a.69.69,0,0,0-1.38,0v4.39a2.71,2.71,0,0,0,1.3,2.3l7.78,4.7c.4-.29.79-.59,1.17-.9l-8.23-5A1.32,1.32,0,0,1,40.87,47.56Z"/><path class="cls-12" d="M39.5,43.17v1.91h1.38V43.17a.68.68,0,0,0-.09-.34H39.59A.68.68,0,0,0,39.5,43.17Z"/><path class="cls-13" d="M24.75,51.31c-3.06-1.15-14.84-12.78-14-25.25.26-3.76-2.33-5.3-5.08-1a27.72,27.72,0,0,0-1.33,2.45A28,28,0,0,0,20.78,57.66c0-.58,1.05-1.3,4-2.18C32.14,53.25,27.34,52.28,24.75,51.31Z"/><path class="cls-14" d="M24.75,51.31c-3.06-1.15-14.84-12.78-14-25.25a6.15,6.15,0,0,0-.1-1.69l-.26.09s-.12-1.35-1.18-1.24S1.8,36.87,7.49,44.5s11,6.14,11.66,8.14c.59,1.79,6.19.28,8-.46C26.43,51.87,25.5,51.59,24.75,51.31Z"/><path class="cls-15" d="M28.53,38.75l-.25.17s0-.72,1.18-.53"/><path class="cls-16" d="M24.28,57.24a4.6,4.6,0,0,1-.86,1.41c.69.22,1.4.42,2.12.59a2.35,2.35,0,0,1,.33-2Z"/><path class="cls-17" d="M21.16,28.25a4,4,0,0,1-1.3-.5c-.69-.41,2.13-.91,2.13-.91v1.63l-.53.84"/><path class="cls-18" d="M15.55,43.37s14.5-2.25,16.1.69-5.77,13.19-5.77,13.19H24.28l3.64-10.19s-7.86,4.37-13.46,1.38S9.18,35.32,9.18,35.32"/><path class="cls-19" d="M36,59.72c-2-4.46-8.9-16.49-24.69-17.35l-2.09-4S7.29,44.8,14.31,49.3c4,2.58,13.19,3.46,13.19,3.46l6.35,7.17Q34.91,59.86,36,59.72Z"/><path class="cls-20" d="M29,38.72s1.29-.67,2.13-1,1.83.67,2.08,1,1.67,2,.63,1.67A10.17,10.17,0,0,0,32,40s-1,.88-3,.13"/><path class="cls-21" d="M16.74,28.07a65.69,65.69,0,0,1,3.88,5.86c1,2,.54-5.68.54-5.68s1.09.1,1.42-.26c0,0,2,9.73.29,9.94A50.58,50.58,0,0,1,16,37.55"/><path class="cls-22" d="M21.17,35.65c1-.25-.08-.78,0-1.86h0c-.1.52-.27.68-.54.14a65.69,65.69,0,0,0-3.88-5.86l-.45,5.83.33,2.48,1.46,1.38c.89.08,1.95.16,2.88.19l.73-1.12S20.21,35.9,21.17,35.65Z"/><path class="cls-23" d="M21.16,28.25a44.58,44.58,0,0,1,.06,5.12c.27-1.54,1.36-5.38,1.36-5.38C22.25,28.34,21.16,28.25,21.16,28.25Z"/><path class="cls-24" d="M11.86,25.07s4.24.8,5.36,4c1.2,3.41.19,5.52.19,5.52"/><ellipse class="cls-25" cx="17.3" cy="30.6" rx="0.27" ry="0.21" transform="translate(-13.89 46.81) rotate(-87.97)"/><path class="cls-26" d="M11.16,24.68s4.69,2.56,5.23,3.58.07,2,.53,2.79-6.58-3-6.58-3l-1.29-2-.52-.86.52-.86h1.17"/><path class="cls-27" d="M12.41,23.81a7.49,7.49,0,0,0-1.75,4.07s4.42,1.38,6.42,3.79c0,0-1.55-2.63-1.07-3.72s-2.8-4.15-2.8-4.15"/><path class="cls-28" d="M10.68,27.51C12,28,15,29,14.77,28.27,14.49,27.32,16,28,16,28l-.83-2a20.61,20.61,0,0,0-2-2.16h-.79A7.9,7.9,0,0,0,10.68,27.51Z"/><circle class="cls-29" cx="12.7" cy="18.85" r="1.74"/><ellipse class="cls-30" cx="13.68" cy="19.7" rx="1.28" ry="1.23"/><path class="cls-31" d="M18.53,21h0a1.56,1.56,0,0,0-1.09-1.17c-1.88-.59-3.82,1.15-5,2.49s1.57,3.92,3.38,3.74a2.81,2.81,0,0,0,2-1.71,1.21,1.21,0,0,0,.63-.33C19.29,23.2,18.53,21,18.53,21Z"/><path class="cls-32" d="M18.42,20.66a1.52,1.52,0,0,0-1-.86,2.86,2.86,0,0,0-1.82.07l-.28.33-1.17,1.51.4,2.94.75,1a7.33,7.33,0,0,0,0-1.17l.47-.22a.93.93,0,0,0,.54-.85v-.26a.92.92,0,0,1,.27-.65l1.82-1.82Z"/><path class="cls-33" d="M17.9,24.34s-1.69-.13-2.25.93-1.31-2.73-1.31-2.73l-.5.34a4.47,4.47,0,0,0,0,3.3c1,2.17,4,2.36,4.41,1.17A5.41,5.41,0,0,0,17.9,24.34Z"/><path class="cls-34" d="M13.84,22.87s.45-.91-.23-1.21-1.31,1-.67,1.63l-.52.52a5,5,0,0,1-.54-2.28A3.25,3.25,0,0,1,14,18.61a3.74,3.74,0,0,1,4.44,2.05s-1.73-.64-2-.24-.33,1.78-1.2,1.73-1,.14-.82.71"/><path class="cls-35" d="M17.63,23.81c-.51-.58-.35.59.27.53a1.21,1.21,0,0,0,.62-.32C18.46,24.07,18.1,24.33,17.63,23.81Z"/><path class="cls-36" d="M8.18,28.51s-1-3.83,1.13-3.08,5.92,1.93,7.77,5.93-2.6,7.94.25,10.56-7.41,3.66-9,1.27C4.33,37,8.18,28.51,8.18,28.51Z"/><ellipse class="cls-25" cx="15.93" cy="30.99" rx="0.27" ry="0.34" transform="translate(-13.36 12.11) rotate(-30)"/><path class="cls-37" d="M15.93,31s.55.41.57,2.38"/><path class="cls-37" d="M17.3,30.6s.66,1.78-.81,2.28"/><path class="cls-38" d="M16,39.54,11.16,28.42c-1-.47-2.33.12-3.19.62-.75,1.94-3,8.9.39,14.16.51.78,1.94,1.19,3.54,1.31-1-.12-2.28-.57-2.34-1.26s2.25.63,1.11-2.75S16,39.54,16,39.54Z"/><path class="cls-39" d="M7.83,30.45a2.84,2.84,0,0,1,3.84-1.87,8.84,8.84,0,0,1,3.12,2.51c3.69,4.3,10.79,9,14.35,7.48a1.07,1.07,0,0,1,.49-.08c.49,0,1.33.24.87,1.38-.63,1.56-11.06,1.87-17.47-1.61C7.92,35.49,7.29,32.42,7.83,30.45Z"/><path class="cls-40" d="M12.12,33.92c0-.71.85-1.83.57-2.36a8.08,8.08,0,0,1-1.07-2c-.35-1.09,1.29-.29,1.29-.29l-.72-.46a5.38,5.38,0,0,0-.53-.26,2.84,2.84,0,0,0-3.84,1.87c-.54,2,.09,5,5.2,7.81a19.49,19.49,0,0,0,3.65,1.49C13.7,38.65,12.12,34.58,12.12,33.92Z"/><path class="cls-15" d="M29.51,38.93s1,.34.16,1.54a.71.71,0,0,0,.53-.1,1.1,1.1,0,0,0,.19-1.67"/><path class="cls-41" d="M9,24.73c.41-.75,2.14-.05,2.14-.05s-3.16-1.9-3.21,2l2-1S8.7,25.34,9,24.73Z"/><path class="cls-42" d="M13.53,22.38a.31.31,0,0,0-.58.12v0c0,.55.31.41.3.63s.43-.3.34-.63A1.37,1.37,0,0,0,13.53,22.38Z"/><path class="cls-43" d="M20.69,27.89s.47-.11.32-.36-.48-1.5-.1-1.71a3.9,3.9,0,0,1,2.21,0c.41.1.64.57.23.84s-.31.67-.6,1.17A1.29,1.29,0,0,1,20.69,27.89Z"/><path class="cls-44" d="M22.75,27.86c.29-.5.19-.9.6-1.17-.28.17-.77.24-.64,0s-.12-.94-.12-.94L20.83,27a2.47,2.47,0,0,0,.19.55c.15.25-.32.36-.32.36A1.29,1.29,0,0,0,22.75,27.86Z"/><path class="cls-45" d="M22.58,25.77a4.89,4.89,0,0,0-1.84-.18,4.89,4.89,0,0,0-1.84.18c0,1,.83,2.31,1.85,2.31s1.85-1.29,1.85-2.31Z"/><path class="cls-46" d="M20.74,26.41c0-.46,1.84-.65,1.84-.65a4.89,4.89,0,0,0-1.84-.18,4.89,4.89,0,0,0-1.84.18c0,1,.83,2.31,1.85,2.31C21.63,27.86,20.75,26.87,20.74,26.41Z"/><path class="cls-15" d="M28.5,38.61l.84-.29a.53.53,0,0,1,.32,0l.73.21a.14.14,0,0,1,0,.27l-.85.3a.46.46,0,0,1-.32,0l-.73-.28A.1.1,0,0,1,28.5,38.61Z"/><path class="cls-47" d="M44.31,54.32,35,48.68a1.32,1.32,0,0,1-.64-1.13V43.17a.69.69,0,0,0-1.38,0v4.39a2.71,2.71,0,0,0,1.3,2.3l9.32,5.63a.6.6,0,0,1,.11.93L42,58.16a27.86,27.86,0,0,0,3.14-1.42,2,2,0,0,0-.8-2.42Z"/><path class="cls-48" d="M33,43.17v1.91h1.38V43.17a.68.68,0,0,0-.09-.34H33.08A.68.68,0,0,0,33,43.17Z"/><path class="cls-49" d="M16,45.2l.21,0a.18.18,0,0,1,.14.15c.09.5.35,2.4-.67,3.11a.18.18,0,0,1-.14,0l-.29-.07a.18.18,0,0,1-.09-.3,3.14,3.14,0,0,0,.63-2.75A.18.18,0,0,1,16,45.2Z"/><g class="cls-50"><polygon class="cls-51" points="5.16 49.13 5.16 49.13 5.16 49.13 5.16 49.13"/></g><rect class="cls-52" x="25.12" y="41.45" width="34.57" height="2.25" rx="0.86" ry="0.86"/><path class="cls-53" d="M51.49,30.08H44a.46.46,0,0,0-.43.29l-4,9.53a.53.53,0,0,1-.49.33h-7a1,1,0,0,0-.84.45.5.5,0,0,0,.42.78H46.6a.88.88,0,0,0,.81-.53l4.51-10.2A.46.46,0,0,0,51.49,30.08Z"/><path class="cls-54" d="M51.92,30.73a.46.46,0,0,0-.42-.65H45L40.3,41.17a.53.53,0,0,1-.27.28H46.6a.88.88,0,0,0,.81-.53Z"/><path class="cls-55" d="M11.48,30.49l-1.12.18a.53.53,0,0,0-.41.33l-.4,1.06a.53.53,0,0,0,.09.52l.72.88a.53.53,0,0,0,.5.19L12,33.47a.53.53,0,0,0,.41-.33l.4-1.06a.53.53,0,0,0-.09-.52L12,30.68A.53.53,0,0,0,11.48,30.49Z"/><path class="cls-56" d="M17.75,40a3.48,3.48,0,0,0-.45-.12Z"/><rect class="cls-57" x="25.12" y="41.45" width="34.57" height="2.25" rx="0.86" ry="0.86"/><path class="cls-58" d="M59.42,41.7a.86.86,0,0,0-.6-.24h-4a1,1,0,0,1,.6.86v.52a.86.86,0,0,1-.86.86h4.27l.17,0,.16-.05.15-.08.07,0a.86.86,0,0,0,.31-.67v-.52h0A.88.88,0,0,0,59.42,41.7Z"/><circle class="cls-59" cx="31.94" cy="42.58" r="0.25"/><circle class="cls-59" cx="33.67" cy="42.58" r="0.25"/><circle class="cls-59" cx="35.41" cy="42.58" r="0.25"/><path class="cls-60" d="M50,25.95l-.27.6a.79.79,0,0,0,0,.68l.16.32a.59.59,0,0,1-.11.69l-.33.33a2.05,2.05,0,0,0-.59,1.73h0a.93.93,0,0,0,.53.72h0a.87.87,0,0,1,.43,1.15l-.17.36a3.35,3.35,0,0,0-.3,1.21h0a3.06,3.06,0,0,0,.42,1.72l.62,1,1.11.5,1.16-2.09a3.79,3.79,0,0,0-.06-3.77h0a1.41,1.41,0,0,1,.17-1.67l.16-.18a2,2,0,0,0,.52-1.25l0-.31a.84.84,0,0,0-.65-.86l-.51-.12a.45.45,0,0,1-.35-.53l.14-.67a1.77,1.77,0,0,0-.76-1.84h0a.94.94,0,0,0-1.38.4h0a1.46,1.46,0,0,0-.08,1l.13.5A.52.52,0,0,1,50,25.95Z"/><path class="cls-61" d="M52.63,31.15a1.41,1.41,0,0,1,.17-1.67l.16-.18a2,2,0,0,0,.52-1.25l0-.31a.84.84,0,0,0-.65-.86l-.51-.12a.45.45,0,0,1-.35-.53l.14-.67a1.77,1.77,0,0,0-.76-1.84h0a.38.38,0,0,0-.58.37L51,25.8a2.24,2.24,0,0,1,0,.53l-.09.93a.9.9,0,0,0,.25.71h0a1.07,1.07,0,0,1,.15,1.31h0A3.15,3.15,0,0,0,51,31.86h0a2,2,0,0,1,.07.86l-.28,1.93.09,2.07.65.29,1.16-2.09A3.79,3.79,0,0,0,52.63,31.15Z"/><path class="cls-62" d="M51,25.75a4.53,4.53,0,0,1,.07.74,7.21,7.21,0,0,1-.08.74,6.27,6.27,0,0,0-.08.73,3.43,3.43,0,0,0,.11.71l.15.72.13.63.19-.34c.1-.17.18-.34.29-.5a3.94,3.94,0,0,1,.35-.47l.38-.44-.36.46a3.9,3.9,0,0,0-.32.48c-.09.17-.17.34-.26.52l-.24.48a3.89,3.89,0,0,1,.1.66,2.92,2.92,0,0,1-.07.76l-.17.72,0,.2c.07-.12.13-.24.21-.36a2.91,2.91,0,0,1,.26-.34l.28-.32-.26.34a2.87,2.87,0,0,0-.24.35c-.07.12-.13.25-.19.38l-.12.25-.05.22a6.89,6.89,0,0,0-.14.72,5.18,5.18,0,0,0,0,.73c0,.24,0,.49,0,.74,0,.49,0,1,0,1.48,0-.49-.08-1-.12-1.47,0-.25,0-.49,0-.74a5.31,5.31,0,0,1,0-.75c0-.06,0-.13,0-.19l-.07-.34c0-.14-.05-.28-.09-.42a2.87,2.87,0,0,0-.14-.4L50.33,32l.19.38a2.91,2.91,0,0,1,.16.4c0,.14.07.28.11.41l0,.13c0-.11,0-.22.07-.32L51,32.3l.16-.72a2.72,2.72,0,0,0,0-.32l-.38-.38c-.14-.14-.27-.28-.41-.4a3.9,3.9,0,0,0-.46-.35l-.48-.32.5.29a3.94,3.94,0,0,1,.48.33c.15.12.29.26.44.38l.33.29c0-.08,0-.16,0-.24a4.35,4.35,0,0,0-.1-.72L51,29.43l-.14-.73c0-.12,0-.24-.07-.37a2.15,2.15,0,0,1,0-.38,6.31,6.31,0,0,1,.11-.74c0-.24.09-.48.11-.73a4.47,4.47,0,0,0,0-.73L50.92,25Z"/><path class="cls-63" d="M54,32.74v.38a.45.45,0,0,1-.17.35l-.16.13a.34.34,0,0,0-.1.38l.09.25a1.18,1.18,0,0,1-.1,1h0a.53.53,0,0,1-.45.25h0a.5.5,0,0,0-.5.5v.23a1.92,1.92,0,0,1-.13.7h0a1.75,1.75,0,0,1-.63.8l-.57.4h-.7l-.11-1.37a2.17,2.17,0,0,1,.92-1.95h0a.81.81,0,0,0,.31-.91l0-.13a1.15,1.15,0,0,1,0-.78l.06-.16a.48.48,0,0,1,.54-.29l.3.06a.26.26,0,0,0,.31-.2L53,32a1,1,0,0,1,.83-.78h0a.54.54,0,0,1,.62.53h0a.83.83,0,0,1-.19.53l-.19.23A.3.3,0,0,0,54,32.74Z"/><path class="cls-64" d="M51.4,34.83a.81.81,0,0,0,.31-.91l0-.13a1.15,1.15,0,0,1,0-.77l.06-.16a.48.48,0,0,1,.54-.29l.3.06a.26.26,0,0,0,.31-.2L53,32a1,1,0,0,1,.83-.78h0a.22.22,0,0,1,.22.33l-.53.83a1.28,1.28,0,0,0-.13.27l-.18.51a.51.51,0,0,1-.3.31h0a.61.61,0,0,0-.39.65h0a1.8,1.8,0,0,1-.44,1.42h0a1.12,1.12,0,0,0-.24.43l-.31,1.07L51,38.15h-.41l-.11-1.37A2.17,2.17,0,0,1,51.4,34.83Z"/><path class="cls-65" d="M53.51,32.39a2.59,2.59,0,0,0-.21.37,4.13,4.13,0,0,0-.13.41,3.59,3.59,0,0,1-.13.4,2,2,0,0,1-.22.35l-.25.34-.21.3,0-.22c0-.11,0-.22,0-.33a2.26,2.26,0,0,0-.07-.33l-.09-.32.08.32a2.23,2.23,0,0,1,.05.33c0,.11,0,.22,0,.33v.31a2.23,2.23,0,0,0-.21.32,1.67,1.67,0,0,0-.14.41l-.08.42,0,.11c0-.08,0-.16,0-.24a1.67,1.67,0,0,0-.05-.24l-.07-.23.06.24a1.65,1.65,0,0,1,0,.24c0,.08,0,.16,0,.24v.16l0,.13a3.94,3.94,0,0,1-.09.41,3,3,0,0,1-.15.39l-.19.38-.37.76.41-.74.2-.37a3,3,0,0,0,.16-.4l0-.11.11-.16.14-.2.17-.18.18-.17-.19.16-.18.17-.16.19,0,.06,0-.18.09-.41.09-.41a1.56,1.56,0,0,1,.05-.18l.29-.11.31-.11.32-.07.33-.05-.33,0-.33.06-.32.1-.24.08.06-.12a2.49,2.49,0,0,1,.22-.35l.24-.35.24-.35.12-.17a1.23,1.23,0,0,0,.1-.19,3.61,3.61,0,0,0,.12-.41c0-.14.07-.27.12-.4a2.56,2.56,0,0,1,.19-.38l.2-.37Z"/><path class="cls-66" d="M47.33,31.31l0,.46a.56.56,0,0,0,.16.45l.18.18a.42.42,0,0,1,.08.48l-.15.29a1.45,1.45,0,0,0,0,1.29h0a.65.65,0,0,0,.52.36h0a.61.61,0,0,1,.55.67l0,.28a2.36,2.36,0,0,0,.07.87h0a2.16,2.16,0,0,0,.67,1.06l.65.56.85.09.31-1.66a2.67,2.67,0,0,0-.88-2.5h0A1,1,0,0,1,50,33.05l.07-.15a1.41,1.41,0,0,0,.07-1l-.06-.21a.59.59,0,0,0-.63-.43l-.37,0a.32.32,0,0,1-.35-.28l-.06-.48a1.25,1.25,0,0,0-.92-1.06h0a.66.66,0,0,0-.83.57h0a1,1,0,0,0,.17.68l.2.3A.36.36,0,0,1,47.33,31.31Z"/><path class="cls-67" d="M50.25,34.2A1,1,0,0,1,50,33.05l.07-.15a1.41,1.41,0,0,0,.07-1l-.06-.21a.59.59,0,0,0-.63-.43l-.37,0a.32.32,0,0,1-.35-.28l-.06-.48a1.25,1.25,0,0,0-.92-1.06h0a.27.27,0,0,0-.31.38L48,31a1.58,1.58,0,0,1,.13.35l.15.64a.63.63,0,0,0,.33.42h0a.75.75,0,0,1,.39.84h0a2.22,2.22,0,0,0,.36,1.8h0a1.38,1.38,0,0,1,.24.56L49.81,37l.52,1.36.5.05.31-1.66A2.67,2.67,0,0,0,50.25,34.2Z"/><path class="cls-68" d="M48,31a3.19,3.19,0,0,1,.21.48,5.08,5.08,0,0,1,.11.51,4.41,4.41,0,0,0,.11.5,2.42,2.42,0,0,0,.23.45l.26.45.22.39.05-.27c0-.13,0-.27.08-.4a2.78,2.78,0,0,1,.13-.39l.16-.38-.14.39a2.74,2.74,0,0,0-.11.39c0,.13,0,.27-.06.4l-.05.37a2.74,2.74,0,0,1,.21.42,2.06,2.06,0,0,1,.12.52l0,.52v.14c0-.09,0-.19.06-.28a2,2,0,0,1,.1-.29l.12-.28-.1.28a2,2,0,0,0-.08.29c0,.1,0,.2,0,.3l0,.2v.16a4.85,4.85,0,0,0,.06.51,3.65,3.65,0,0,0,.13.5l.18.49c.12.33.24.65.35,1-.14-.32-.27-.64-.41-1l-.2-.48a3.74,3.74,0,0,1-.15-.5s0-.09,0-.13L49.44,36l-.15-.26a2,2,0,0,0-.18-.24l-.2-.23.21.22a2,2,0,0,1,.2.23l.17.25.05.08c0-.08,0-.15,0-.23l-.05-.52-.05-.52a1.91,1.91,0,0,0,0-.23L49,34.41l-.37-.18a2.74,2.74,0,0,0-.38-.13l-.39-.1.4.08a2.78,2.78,0,0,1,.4.11l.38.16.28.12-.05-.16a3.07,3.07,0,0,0-.23-.46l-.25-.45L48.54,33l-.13-.23a1.51,1.51,0,0,1-.1-.25,4.44,4.44,0,0,1-.09-.52c0-.17,0-.34-.09-.51A3.15,3.15,0,0,0,48,31l-.2-.48Z"/><path class="cls-69" d="M47.1,38.4A7.37,7.37,0,0,0,47.75,41a.63.63,0,0,0,.59.4H53a.63.63,0,0,0,.59-.4,7.37,7.37,0,0,0,.66-2.65,9.3,9.3,0,0,0-.1-1.37.63.63,0,0,0-.63-.54h-5.7a.63.63,0,0,0-.63.54A9.3,9.3,0,0,0,47.1,38.4Z"/></g></g></svg>