<svg width="396" height="396" viewBox="0 0 396 396" fill="none" xmlns="http://www.w3.org/2000/svg">
<g clip-path="url(#clip0)">
<path d="M351.699 110.571C314.574 99.9899 285.06 85.8205 272.438 73.4455C253.133 54.6355 202.086 57.9149 197.198 43.9312C193.176 32.4843 189.525 38.053 174.366 26.9774C145.384 31.6654 118.08 43.6775 95.042 61.8749L98.012 62.803C182.183 87.612 268.191 105.695 355.226 116.882C354.113 114.716 352.689 112.612 351.699 110.571Z" fill="url(#paint0_linear)"/>
<path d="M138.044 139.59C138.044 139.59 160.876 127.648 178.015 139.033C193.051 149.057 194.226 142.869 198.001 149.428C201.775 155.987 227.144 149.428 238.591 157.286C250.038 165.144 281.532 170.961 315.563 168.981C260.492 174.002 205.067 173.733 150.048 168.176C127.432 165.878 105.042 161.739 83.0989 155.801C81.481 155.362 80.0656 154.376 79.0942 153.009C78.1228 151.643 77.6557 149.982 77.7725 148.31C77.8893 146.638 78.5829 145.058 79.7348 143.84C80.8868 142.622 82.4257 141.842 84.0889 141.632C88.6791 141.068 93.1495 139.773 97.3301 137.796C113.232 129.938 138.044 139.59 138.044 139.59Z" fill="url(#paint1_linear)"/>
<path d="M365.064 257.833L308.077 219.161C306.067 217.794 303.67 217.109 301.241 217.21C298.811 217.31 296.479 218.189 294.588 219.718L239.396 264.516C237.773 265.837 235.718 266.511 233.628 266.409C231.537 266.306 229.558 265.433 228.073 263.959L218.544 254.43C217.699 253.584 216.696 252.914 215.592 252.456C214.488 251.998 213.304 251.763 212.109 251.763C210.914 251.763 209.73 251.998 208.626 252.456C207.522 252.914 206.519 253.584 205.674 254.43L193.547 266.063L174.18 246.881L214.213 363.639H253.008C278.569 355.816 301.979 342.197 321.414 323.846C340.85 305.494 355.788 282.903 365.064 257.833V257.833Z" fill="url(#paint2_linear)"/>
<path d="M265.136 100.98L260.31 99.6806C260.31 99.6806 258.144 99.6805 258.825 97.948C259.506 96.2155 259.568 97.5149 258.825 94.4212C258.083 91.3274 258.144 88.2337 261.981 89.2855C265.817 90.3374 267.859 89.2855 270.705 100.299C273.551 111.313 265.136 100.98 265.136 100.98Z" fill="url(#paint3_linear)"/>
<path d="M230.981 99C230.465 103.729 229.47 108.394 228.011 112.922C227.346 113.601 226.514 114.092 225.598 114.345L216.997 105.187L219.348 97.4531" fill="url(#paint4_linear)"/>
<path style="mix-blend-mode:multiply" opacity="0.68" d="M219.348 97.2675L216.997 105.188L225.536 114.654C226.138 114.493 226.704 114.22 227.206 113.85C227.432 111.606 228.266 109.467 229.62 107.663C230.362 103.826 230.919 99.5569 230.919 99.5569L219.348 97.2675Z" fill="url(#paint5_linear)"/>
<path d="M194.536 108.838C193.461 106.314 192.906 103.599 192.906 100.856C192.906 98.1129 193.461 95.3979 194.536 92.8743C196.145 87.6768 192.618 83.4693 197.568 80.0662C200.724 77.9006 219.534 75.1781 228.506 81.4893C230.349 82.5236 231.918 83.9842 233.082 85.749C234.246 87.5138 234.97 89.5316 235.194 91.6335C235.418 93.7355 235.136 95.8606 234.37 97.8311C233.605 99.8016 232.379 101.56 230.795 102.96C225.041 109.581 227.949 117.191 230.486 117.253C233.023 117.315 211.923 131.484 211.923 131.484L202.209 132.66" fill="url(#paint6_linear)"/>
<path d="M230.235 117.562C227.698 117.562 224.79 109.89 230.544 103.269C231.666 101.992 232.622 100.578 233.391 99.0618C233.391 99.0618 229.74 104.197 226.028 102.403C222.315 100.609 227.513 92.5649 222.006 90.5849C216.499 88.6049 214.766 94.5449 206.475 95.4112C198.184 96.2774 194.409 85.7587 194.409 85.7587C194.825 88.2162 194.825 90.7261 194.409 93.1837C193.334 95.7073 192.779 98.4223 192.779 101.166C192.779 103.909 193.334 106.624 194.409 109.147L201.711 133.031L211.425 131.856C211.425 131.856 232.772 117.562 230.235 117.562Z" fill="url(#paint7_linear)"/>
<path d="M339.076 304.054C334.316 303.445 329.52 303.155 324.721 303.188H277.573C254.345 303.111 232.045 294.067 215.326 277.943L156.669 221.884C153.279 218.617 148.754 216.792 144.046 216.792C139.338 216.792 134.814 218.617 131.424 221.884L57.1738 292.854C72.2934 315.946 92.7112 335.091 116.727 348.695C140.743 362.299 167.661 369.968 195.24 371.064C222.82 372.159 250.262 366.65 275.281 354.994C300.3 343.338 322.173 325.873 339.076 304.054V304.054Z" fill="url(#paint8_linear)"/>
<path d="M131.424 221.884L57.1738 292.854C73.339 317.507 95.503 337.649 121.586 351.388C121.119 349.55 120.181 347.865 118.863 346.5L106.488 334.125C101.352 328.876 98.4763 321.824 98.4763 314.48C98.4763 307.136 101.352 300.084 106.488 294.834L134.332 266.063C141.403 258.865 145.359 249.175 145.346 239.085V231.784C145.365 230.105 144.978 228.446 144.217 226.95C143.456 225.453 142.344 224.163 140.976 223.19C139.607 222.218 138.024 221.59 136.36 221.363C134.697 221.135 133.003 221.314 131.424 221.884V221.884Z" fill="url(#paint9_linear)"/>
<path d="M194.163 327.938C191.873 337.961 181.169 352.688 167.618 368.033C171.949 368.899 176.343 369.579 180.798 370.136C189.084 357.077 198.351 344.667 208.518 333.011L194.163 327.938Z" fill="url(#paint10_linear)"/>
<path d="M202.762 371.25C209.442 371.22 216.115 370.807 222.747 370.012C231.039 343.221 241.31 319.894 245.208 314.944C249.137 310.604 251.867 305.315 253.128 299.599H233.142C231.657 324.039 217.364 351.326 202.762 371.25Z" fill="url(#paint11_linear)"/>
<path d="M183.274 197.505L192.246 314.944H199.609L211.056 190.575" fill="url(#paint12_linear)"/>
<path d="M192.308 195.216L183.274 197.505L192.308 315.067C191.38 303.187 201.713 274.106 204.188 268.042V266.867C201.492 266.1 199.168 264.376 197.653 262.018C196.138 259.66 195.535 256.83 195.959 254.059C196.578 242.921 208.334 223.678 208.334 223.678L210.376 199.794L192.308 195.216Z" fill="url(#paint13_linear)"/>
<path d="M204.189 325.648C199.239 323.854 199.363 315.996 199.425 314.944H192.247V331.402C192.247 331.786 192.395 332.154 192.66 332.431C192.925 332.708 193.287 332.871 193.67 332.887H208.52C208.717 331.37 208.397 329.829 207.611 328.516C206.826 327.202 205.62 326.192 204.189 325.648V325.648Z" fill="url(#paint14_linear)"/>
<path d="M185.936 189.956C185.936 189.956 196.083 172.446 220.957 194.906C253.627 224.421 242.49 285.429 242.49 285.429H234.322C237.849 237.6 213.841 224.359 199.796 220.708C196.792 219.893 194 218.44 191.608 216.448C189.217 214.456 187.283 211.972 185.938 209.165C184.593 206.358 183.87 203.294 183.816 200.182C183.762 197.071 184.38 193.984 185.626 191.132L185.936 189.956Z" fill="url(#paint15_linear)"/>
<path d="M240.137 253.688C239.359 248.936 238.052 244.288 236.239 239.828C233.387 232.424 231.918 224.559 231.908 216.624V208.395L183.707 197.629C183.23 202.749 184.584 207.873 187.53 212.087C190.476 216.302 194.822 219.335 199.795 220.646C213.84 224.297 237.848 237.538 234.321 285.368H242.488C242.488 285.368 243.169 281.531 243.726 275.406C243.726 270.27 244.283 265.629 244.283 264.083C244.407 259.875 241.313 263.649 240.137 253.688Z" fill="url(#paint16_linear)"/>
<path d="M217.307 119.542C217.307 119.542 235.127 114.097 241.314 130.804C247.502 147.51 231.909 188.409 233.951 197.629C235.993 206.848 236.612 210.437 225.969 207.157C215.327 203.878 189.339 204.559 185.627 204.187C175.912 203.197 180.739 191.812 184.08 180.861C187.421 169.909 217.307 119.542 217.307 119.542Z" fill="url(#paint17_linear)"/>
<path d="M240.757 150.233L216.007 133.65V154.193C216.007 154.193 225.969 178.943 229.743 164.154C233.517 149.366 240.757 150.233 240.757 150.233Z" fill="url(#paint18_linear)"/>
<path d="M224.051 118.676C224.051 118.676 217.307 113.417 260.248 129.937C272.623 134.826 270.148 112.736 265.074 101.413C264.974 100.958 265.015 100.483 265.192 100.052C265.369 99.6205 265.673 99.2536 266.064 98.9999C267.302 98.0718 269.344 97.453 271.509 100.361C275.036 105.249 303.004 162.236 242.243 151.037C242.243 151.037 221.576 142.498 220.958 130.866C220.339 119.233 221.019 121.399 224.051 118.676Z" fill="url(#paint19_linear)"/>
<path d="M227.824 139.838C227.824 139.838 227.824 121.275 238.219 121.77C237.051 119.912 235.332 118.466 233.302 117.634C231.271 116.802 229.031 116.625 226.896 117.129C219.038 118.676 213.964 133.712 213.964 133.712L222.069 148.809" fill="url(#paint20_linear)"/>
<path d="M185.005 178.138C184.572 179.19 184.201 180.118 184.015 180.799C180.674 191.813 175.848 203.198 185.624 204.188C197.49 204.206 209.346 204.867 221.14 206.168C218.294 204.992 217.242 202.208 222.069 200.846C228.256 199.114 228.813 188.904 228.813 188.904L185.005 178.138Z" fill="url(#paint21_linear)"/>
<path d="M240.754 150.232C240.754 150.232 241.559 192.493 216.004 193.545L214.024 198.495C214.024 198.495 243.229 201.96 245.457 151.346C245.271 151.284 245.024 151.717 240.754 150.232Z" fill="url(#paint22_linear)"/>
<path d="M240.756 150.232C240.778 158.632 239.483 166.983 236.92 174.982C237.489 173.41 238.472 172.02 239.766 170.961C242.229 168.951 243.824 166.071 244.221 162.917V162.298C244.716 159.019 245.026 155.368 245.211 151.47C245.273 151.284 245.026 151.717 240.756 150.232Z" fill="url(#paint23_linear)"/>
<path d="M217.617 123.75L183.586 122.389C182.01 122.294 180.53 121.601 179.449 120.45C178.367 119.3 177.767 117.78 177.77 116.201V113.541C177.77 111.9 178.421 110.326 179.582 109.165C180.742 108.005 182.316 107.353 183.957 107.353L217.988 108.714C219.564 108.809 221.044 109.503 222.125 110.653C223.207 111.803 223.807 113.323 223.805 114.902V117.563C223.805 119.204 223.153 120.777 221.992 121.938C220.832 123.098 219.258 123.75 217.617 123.75Z" fill="#39CE9C"/>
<path d="M217.617 123.75L183.586 122.389C182.01 122.294 180.53 121.601 179.449 120.45C178.367 119.3 177.767 117.78 177.77 116.201V113.541C177.77 111.9 178.421 110.326 179.582 109.165C180.742 108.005 182.316 107.353 183.957 107.353L217.988 108.714C219.564 108.809 221.044 109.503 222.125 110.653C223.207 111.803 223.807 113.323 223.805 114.902V117.563C223.805 119.204 223.153 120.777 221.992 121.938C220.832 123.098 219.258 123.75 217.617 123.75Z" fill="url(#paint24_linear)"/>
<g opacity="0.24">
<path opacity="0.24" d="M188.598 116.696V114.036C188.598 112.395 189.25 110.821 190.41 109.66C191.57 108.5 193.144 107.848 194.785 107.848H191.691C190.05 107.848 188.477 108.5 187.316 109.66C186.156 110.821 185.504 112.395 185.504 114.036V116.696C185.501 118.275 186.102 119.795 187.183 120.945C188.264 122.096 189.744 122.789 191.32 122.884H194.414C192.838 122.789 191.358 122.096 190.277 120.945C189.196 119.795 188.595 118.275 188.598 116.696V116.696Z" fill="url(#paint25_linear)"/>
<path opacity="0.24" d="M202.211 117.253V114.592C202.211 112.951 202.863 111.378 204.023 110.217C205.184 109.057 206.757 108.405 208.398 108.405H205.305C203.664 108.405 202.09 109.057 200.929 110.217C199.769 111.378 199.117 112.951 199.117 114.592V117.253C199.114 118.832 199.715 120.352 200.796 121.502C201.878 122.652 203.358 123.346 204.933 123.441H208.027C206.451 123.346 204.971 122.652 203.89 121.502C202.809 120.352 202.208 118.832 202.211 117.253Z" fill="url(#paint26_linear)"/>
</g>
<path d="M223.926 118.119V115.459C223.928 113.88 223.328 112.36 222.247 111.21C221.165 110.059 219.685 109.366 218.109 109.271H216.563C214.921 109.271 213.348 109.923 212.187 111.084C211.027 112.244 210.375 113.818 210.375 115.459V118.119C210.372 119.698 210.973 121.218 212.054 122.368C213.135 123.519 214.615 124.212 216.191 124.307H217.986C219.583 124.243 221.094 123.563 222.202 122.409C223.309 121.256 223.927 119.718 223.926 118.119V118.119Z" fill="url(#paint27_linear)"/>
<path d="M220.646 117.562V116.263C220.662 115.873 220.602 115.483 220.468 115.117C220.334 114.75 220.129 114.413 219.864 114.126C219.6 113.839 219.281 113.606 218.927 113.442C218.573 113.278 218.19 113.185 217.8 113.169H216.933C216.538 113.153 216.144 113.215 215.773 113.353C215.402 113.491 215.063 113.702 214.775 113.973C214.487 114.244 214.255 114.569 214.095 114.931C213.934 115.292 213.847 115.682 213.84 116.078V117.377C213.823 117.767 213.883 118.157 214.018 118.523C214.152 118.89 214.357 119.227 214.621 119.514C214.886 119.801 215.204 120.034 215.558 120.198C215.913 120.362 216.296 120.455 216.686 120.471H217.552C217.947 120.487 218.342 120.425 218.712 120.287C219.083 120.149 219.422 119.938 219.711 119.667C219.999 119.396 220.23 119.071 220.391 118.709C220.551 118.348 220.638 117.958 220.646 117.562V117.562Z" fill="url(#paint28_linear)"/>
<path d="M205.551 126.287L185.628 125.483C185.179 125.451 184.76 125.246 184.46 124.911C184.16 124.576 184.002 124.138 184.019 123.688L184.576 109.704C184.67 108.129 185.364 106.649 186.514 105.567C187.664 104.486 189.185 103.885 190.763 103.888L201.839 104.321C203.404 104.431 204.868 105.131 205.937 106.28C207.005 107.429 207.597 108.94 207.593 110.509L207.036 124.493C207.056 124.923 206.915 125.345 206.64 125.677C206.366 126.008 205.978 126.226 205.551 126.287V126.287ZM186.989 122.946L204.809 123.75L205.304 110.633C205.329 110.172 205.262 109.712 205.107 109.278C204.951 108.844 204.711 108.445 204.4 108.105C204.089 107.766 203.713 107.491 203.294 107.298C202.876 107.105 202.423 106.998 201.963 106.982L190.887 106.549C190.432 106.532 189.978 106.606 189.551 106.765C189.124 106.924 188.733 107.165 188.4 107.476C188.067 107.786 187.798 108.159 187.609 108.573C187.42 108.987 187.314 109.435 187.298 109.89L186.989 122.946Z" fill="url(#paint29_linear)"/>
<path d="M201.464 107.601L191.378 107.168C191.113 107.16 190.851 107.099 190.61 106.988C190.369 106.877 190.152 106.719 189.973 106.522C189.794 106.326 189.656 106.096 189.568 105.845C189.48 105.595 189.443 105.329 189.46 105.064V104.754C189.468 104.494 189.527 104.238 189.634 104.001C189.741 103.764 189.894 103.55 190.083 103.372C190.273 103.194 190.496 103.055 190.739 102.963C190.983 102.871 191.242 102.828 191.502 102.836L201.587 103.269C201.774 103.277 201.958 103.322 202.128 103.401C202.297 103.48 202.45 103.592 202.576 103.73C202.703 103.868 202.8 104.029 202.864 104.205C202.928 104.381 202.957 104.567 202.949 104.754V106.178C202.949 106.37 202.91 106.56 202.835 106.737C202.759 106.914 202.649 107.073 202.51 107.206C202.371 107.339 202.207 107.443 202.027 107.511C201.847 107.578 201.656 107.609 201.464 107.601Z" fill="url(#paint30_linear)"/>
<path d="M168.671 150.913L177.643 151.284C178.487 151.283 179.323 151.454 180.099 151.788C180.875 152.122 181.575 152.611 182.154 153.226C182.734 153.84 183.182 154.567 183.47 155.361C183.758 156.155 183.881 157 183.83 157.843L182.716 186.986C182.716 189.833 178.509 191.998 175.724 191.874L165.268 191.441L168.299 157.224C168.176 153.698 172.074 151.037 168.671 150.913Z" fill="url(#paint31_linear)"/>
<path d="M167.065 185.192V184.821L168.116 157.534V157.162C168.116 155.521 168.768 153.948 169.929 152.787C171.089 151.627 172.663 150.975 174.304 150.975L165.641 150.604C163.926 150.552 162.258 151.168 160.988 152.322C159.719 153.477 158.947 155.079 158.835 156.791V156.791L157.783 184.078C157.698 185.814 158.3 187.514 159.457 188.811C160.615 190.107 162.236 190.896 163.971 191.008H170.901C167.745 191.812 167.065 188.719 167.065 185.192Z" fill="url(#paint32_linear)"/>
<path d="M185.13 122.141L216.996 123.441C218.538 123.511 220.05 123.889 221.444 124.553C222.838 125.217 224.084 126.153 225.111 127.307C226.137 128.46 226.922 129.807 227.42 131.268C227.918 132.729 228.118 134.276 228.009 135.816L225.906 189.647C225.906 194.906 218.171 198.866 212.974 198.681L193.669 197.876L199.299 134.64C199.547 127.957 191.441 122.389 185.13 122.141Z" fill="url(#paint33_linear)"/>
<path d="M204.189 182.717V188.595C204.061 192.121 202.549 195.456 199.981 197.876V197.876L212.975 198.371C215.39 198.455 217.788 197.932 219.95 196.851C222.111 195.771 223.968 194.166 225.35 192.184L204.189 182.717Z" fill="url(#paint34_linear)"/>
<path d="M197.194 186.12V185.625L199.174 135.197V134.578C199.222 133.058 199.569 131.563 200.195 130.178C200.822 128.792 201.715 127.543 202.824 126.503C203.933 125.463 205.236 124.652 206.659 124.116C208.082 123.58 209.596 123.329 211.116 123.379L179.436 121.894C177.916 121.844 176.402 122.095 174.979 122.631C173.556 123.167 172.253 123.978 171.144 125.018C170.035 126.058 169.142 127.307 168.515 128.693C167.889 130.078 167.542 131.573 167.494 133.093V133.712L165.514 184.14V184.759C165.405 186.299 165.606 187.845 166.103 189.306C166.601 190.767 167.386 192.114 168.413 193.268C169.439 194.421 170.686 195.357 172.08 196.021C173.473 196.685 174.986 197.063 176.528 197.134L205.238 198.309C198.741 198 196.947 192.555 197.194 186.12Z" fill="url(#paint35_linear)"/>
<path d="M194.099 191.813V190.699L165.575 179.438V183.954V184.573C165.466 186.113 165.666 187.659 166.164 189.121C166.662 190.582 167.447 191.929 168.473 193.082C169.5 194.235 170.746 195.171 172.14 195.835C173.534 196.499 175.046 196.878 176.588 196.948L189.953 197.505L193.233 194.411C193.549 194.062 193.79 193.65 193.939 193.203C194.088 192.756 194.143 192.282 194.099 191.813V191.813Z" fill="url(#paint36_linear)"/>
<path d="M164.528 132.969V133.588V140.642C164.511 140.975 164.56 141.308 164.673 141.623C164.785 141.937 164.958 142.226 165.182 142.473C165.406 142.72 165.677 142.92 165.979 143.063C166.281 143.205 166.607 143.287 166.941 143.302L193.733 144.354C194.071 144.371 194.409 144.32 194.727 144.203C195.045 144.087 195.337 143.909 195.585 143.678C195.833 143.447 196.032 143.169 196.171 142.86C196.31 142.551 196.385 142.218 196.393 141.879V134.826V134.207C196.441 132.687 196.788 131.192 197.414 129.806C198.041 128.421 198.934 127.172 200.043 126.132C201.152 125.092 202.455 124.281 203.878 123.745C205.301 123.208 206.815 122.958 208.335 123.007L176.469 121.708C174.945 121.659 173.425 121.911 171.999 122.451C170.572 122.991 169.266 123.808 168.156 124.855C167.046 125.901 166.154 127.157 165.531 128.55C164.909 129.942 164.568 131.444 164.528 132.969V132.969Z" fill="url(#paint37_linear)"/>
<path d="M204.868 122.946C203.348 122.896 201.834 123.147 200.411 123.683C198.988 124.219 197.685 125.03 196.576 126.07C195.467 127.11 194.574 128.359 193.948 129.744C193.321 131.13 192.974 132.625 192.926 134.145V134.764V141.818C192.918 142.156 192.843 142.49 192.704 142.799C192.565 143.108 192.366 143.386 192.118 143.616C191.87 143.847 191.578 144.026 191.26 144.142C190.942 144.258 190.604 144.309 190.266 144.293H193.731C194.069 144.309 194.407 144.258 194.725 144.142C195.043 144.026 195.335 143.847 195.583 143.616C195.831 143.386 196.03 143.108 196.169 142.799C196.308 142.49 196.383 142.156 196.391 141.818V134.764V134.145C196.439 132.625 196.786 131.13 197.413 129.744C198.039 128.359 198.932 127.11 200.041 126.07C201.15 125.03 202.453 124.219 203.876 123.683C205.299 123.147 206.813 122.896 208.333 122.946H204.868Z" fill="url(#paint38_linear)"/>
<path d="M215.014 152.769L223.986 153.141C224.831 153.139 225.667 153.311 226.443 153.645C227.219 153.978 227.918 154.468 228.498 155.082C229.078 155.697 229.525 156.423 229.814 157.217C230.102 158.011 230.224 158.856 230.174 159.699L228.936 188.843C228.936 191.689 224.729 193.854 221.944 193.731L211.487 193.298L214.519 159.081C214.581 155.616 218.479 152.893 215.014 152.769Z" fill="url(#paint39_linear)"/>
<path d="M213.285 187.048V186.677L214.337 159.39V159.019C214.337 157.378 214.989 155.804 216.149 154.644C217.31 153.483 218.884 152.831 220.525 152.831L211.862 152.46C210.147 152.408 208.479 153.025 207.209 154.179C205.939 155.333 205.167 156.935 205.056 158.648V158.648L204.19 186.368C204.105 188.104 204.706 189.803 205.864 191.1C207.021 192.397 208.642 193.186 210.377 193.298H217.307C214.151 193.421 213.161 190.575 213.285 187.048Z" fill="url(#paint40_linear)"/>
<path d="M226.771 169.971L217.242 169.599C217.18 169.6 217.118 169.587 217.061 169.562C217.004 169.536 216.953 169.498 216.912 169.451C216.871 169.404 216.84 169.349 216.822 169.289C216.805 169.229 216.8 169.166 216.809 169.104V169.104C216.808 169.042 216.821 168.98 216.847 168.923C216.872 168.866 216.91 168.815 216.957 168.774C217.004 168.733 217.059 168.702 217.119 168.685C217.179 168.667 217.242 168.662 217.304 168.671L226.833 169.042C226.895 169.042 226.957 169.055 227.014 169.08C227.071 169.106 227.122 169.143 227.163 169.19C227.204 169.237 227.235 169.293 227.253 169.353C227.27 169.413 227.275 169.476 227.266 169.537V169.537C227.267 169.6 227.254 169.662 227.228 169.719C227.203 169.776 227.165 169.827 227.118 169.868C227.071 169.909 227.016 169.94 226.956 169.957C226.896 169.975 226.833 169.98 226.771 169.971Z" fill="#DAE0E0"/>
<path d="M226.773 171.641H225.906C225.808 171.641 225.714 171.602 225.644 171.532C225.574 171.463 225.535 171.368 225.535 171.27V169.537C225.535 169.439 225.574 169.345 225.644 169.275C225.714 169.205 225.808 169.166 225.906 169.166H226.773C226.871 169.166 226.966 169.205 227.035 169.275C227.105 169.345 227.144 169.439 227.144 169.537V171.27C227.144 171.368 227.105 171.463 227.035 171.532C226.966 171.602 226.871 171.641 226.773 171.641V171.641Z" fill="#DAE0E0"/>
<path d="M193.67 192.617L168.92 191.627C167.109 191.531 165.409 190.722 164.192 189.377C162.975 188.033 162.339 186.261 162.423 184.449L163.599 154.069C163.599 152.428 164.251 150.854 165.411 149.694C166.572 148.533 168.146 147.881 169.787 147.881L195.032 148.871C195.094 148.871 195.156 148.883 195.213 148.909C195.27 148.935 195.321 148.972 195.362 149.019C195.403 149.066 195.434 149.122 195.451 149.181C195.469 149.241 195.474 149.304 195.465 149.366L193.794 191.936C193.84 191.986 193.873 192.045 193.892 192.109C193.91 192.174 193.914 192.241 193.902 192.307C193.89 192.373 193.863 192.436 193.823 192.489C193.782 192.543 193.73 192.587 193.67 192.617V192.617Z" fill="url(#paint41_linear)"/>
<path d="M189.645 154.687L188.407 185.625C188.328 187.256 188.833 188.862 189.831 190.155C190.829 191.447 192.254 192.342 193.852 192.679C193.88 192.621 193.894 192.557 193.894 192.493C193.894 192.429 193.88 192.366 193.852 192.307L195.523 149.737C195.532 149.676 195.527 149.613 195.51 149.553C195.492 149.493 195.462 149.437 195.42 149.39C195.379 149.343 195.328 149.306 195.271 149.28C195.214 149.255 195.152 149.242 195.09 149.242V149.242C193.656 149.274 192.289 149.858 191.275 150.872C190.26 151.887 189.677 153.253 189.645 154.687V154.687Z" fill="url(#paint42_linear)"/>
<path d="M219.038 143.55L210.066 143.179C210.039 143.132 210.024 143.078 210.024 143.024C210.024 142.97 210.039 142.916 210.066 142.869V137.177C210.113 137.15 210.166 137.135 210.221 137.135C210.275 137.135 210.328 137.15 210.375 137.177L219.347 137.548C219.374 137.595 219.389 137.649 219.389 137.703C219.389 137.757 219.374 137.81 219.347 137.858V143.55C219.3 143.577 219.247 143.591 219.192 143.591C219.138 143.591 219.085 143.577 219.038 143.55V143.55Z" fill="url(#paint43_linear)"/>
<path d="M210.376 136.806C210.329 136.778 210.275 136.764 210.221 136.764C210.167 136.764 210.113 136.778 210.066 136.806V139.652H214.212C214.259 139.679 214.312 139.693 214.367 139.693C214.421 139.693 214.474 139.679 214.521 139.652V136.806H210.376Z" fill="url(#paint44_linear)"/>
<path d="M183.277 122.079C181.704 121.423 180.029 121.047 178.327 120.966V120.966C176.028 120.93 173.806 121.796 172.139 123.379C170.443 125.612 169.472 128.311 169.355 131.113V137.919C169.346 138.038 169.362 138.158 169.402 138.27C169.442 138.382 169.504 138.485 169.586 138.572C169.667 138.659 169.765 138.729 169.875 138.776C169.984 138.824 170.102 138.848 170.221 138.848H172.51C172.629 138.856 172.749 138.84 172.861 138.8C172.973 138.761 173.076 138.698 173.163 138.617C173.25 138.535 173.32 138.437 173.367 138.328C173.415 138.218 173.439 138.1 173.438 137.981V130.989C173.502 129.729 173.813 128.494 174.355 127.355C174.896 126.215 175.657 125.194 176.594 124.349C177.531 123.504 178.625 122.852 179.814 122.431C181.004 122.01 182.264 121.827 183.524 121.894L183.277 122.079Z" fill="url(#paint45_linear)"/>
<path d="M173.249 136.558H169.041C168.979 136.559 168.917 136.546 168.86 136.52C168.803 136.495 168.752 136.457 168.711 136.41C168.67 136.363 168.639 136.308 168.621 136.248C168.604 136.188 168.599 136.125 168.608 136.063V133.031C168.607 132.969 168.62 132.907 168.646 132.85C168.671 132.793 168.709 132.742 168.756 132.701C168.803 132.66 168.858 132.629 168.918 132.612C168.978 132.594 169.041 132.589 169.103 132.598H173.31C173.373 132.598 173.435 132.61 173.492 132.636C173.549 132.661 173.6 132.699 173.641 132.746C173.682 132.793 173.712 132.848 173.73 132.908C173.748 132.968 173.753 133.031 173.744 133.093L173.249 136.125C173.287 136.191 173.307 136.266 173.307 136.342C173.307 136.418 173.287 136.492 173.249 136.558V136.558Z" fill="#DAE0E0"/>
<path d="M198.805 122.698C196.998 122.037 195.098 121.661 193.175 121.584V121.584C192.097 121.541 191.024 121.734 190.029 122.151C189.035 122.568 188.144 123.198 187.42 123.997C185.725 126.231 184.753 128.93 184.636 131.732V138.538C184.627 138.657 184.644 138.776 184.683 138.889C184.723 139.001 184.785 139.104 184.867 139.191C184.948 139.278 185.046 139.348 185.156 139.395C185.265 139.442 185.383 139.467 185.502 139.466H187.792C187.91 139.475 188.03 139.459 188.142 139.419C188.255 139.379 188.357 139.317 188.445 139.235C188.532 139.154 188.601 139.056 188.648 138.946C188.696 138.837 188.72 138.719 188.72 138.6V131.608C188.783 130.348 189.094 129.113 189.636 127.973C190.177 126.834 190.938 125.812 191.875 124.968C192.812 124.123 193.907 123.471 195.096 123.05C196.285 122.628 197.546 122.446 198.805 122.512V122.698Z" fill="url(#paint46_linear)"/>
<path d="M188.469 137.177H184.262C184.199 137.178 184.137 137.165 184.08 137.139C184.023 137.114 183.973 137.076 183.931 137.029C183.89 136.982 183.86 136.927 183.842 136.867C183.824 136.807 183.82 136.744 183.829 136.682V133.65C183.828 133.588 183.841 133.526 183.866 133.469C183.892 133.412 183.93 133.361 183.977 133.32C184.024 133.279 184.079 133.248 184.139 133.23C184.199 133.213 184.262 133.208 184.324 133.217H188.531C188.594 133.216 188.656 133.229 188.713 133.255C188.77 133.28 188.82 133.318 188.862 133.365C188.903 133.412 188.933 133.467 188.951 133.527C188.969 133.587 188.973 133.65 188.964 133.712V136.744C188.965 136.806 188.952 136.868 188.927 136.925C188.901 136.982 188.863 137.033 188.816 137.074C188.769 137.115 188.714 137.146 188.654 137.164C188.594 137.181 188.531 137.186 188.469 137.177Z" fill="#DAE0E0"/>
<path d="M173.252 132.66H172.448C172.51 132.659 172.572 132.672 172.629 132.698C172.686 132.723 172.737 132.761 172.778 132.808C172.819 132.855 172.85 132.91 172.867 132.97C172.885 133.03 172.89 133.093 172.881 133.155V136.187C172.881 136.249 172.868 136.311 172.843 136.368C172.817 136.425 172.78 136.476 172.733 136.517C172.686 136.558 172.63 136.589 172.571 136.607C172.511 136.624 172.448 136.629 172.386 136.62H173.252C173.303 136.547 173.33 136.461 173.33 136.373C173.33 136.284 173.303 136.198 173.252 136.125V133.093C173.29 133.027 173.31 132.953 173.31 132.877C173.31 132.801 173.29 132.726 173.252 132.66V132.66Z" fill="#E4EFEF"/>
<path d="M188.594 133.279H187.789C187.852 133.278 187.914 133.291 187.971 133.317C188.028 133.342 188.079 133.38 188.12 133.427C188.161 133.474 188.191 133.529 188.209 133.589C188.227 133.649 188.231 133.712 188.223 133.774V136.806C188.223 136.868 188.21 136.93 188.185 136.987C188.159 137.044 188.122 137.095 188.075 137.136C188.028 137.177 187.972 137.208 187.912 137.225C187.852 137.243 187.789 137.248 187.728 137.239H188.532C188.594 137.248 188.657 137.243 188.717 137.225C188.777 137.208 188.832 137.177 188.879 137.136C188.926 137.095 188.964 137.044 188.989 136.987C189.015 136.93 189.028 136.868 189.027 136.806V133.774C189.036 133.712 189.031 133.649 189.014 133.589C188.996 133.529 188.965 133.474 188.924 133.427C188.883 133.38 188.832 133.342 188.775 133.317C188.718 133.291 188.656 133.278 188.594 133.279V133.279Z" fill="#E4EFEF"/>
<path d="M161.928 156.606V157.101V162.546C161.911 163.061 162.095 163.562 162.442 163.943C162.788 164.324 163.27 164.556 163.784 164.587L184.512 165.454C184.772 165.462 185.031 165.419 185.275 165.327C185.518 165.235 185.741 165.096 185.931 164.918C186.12 164.74 186.273 164.526 186.38 164.289C186.487 164.052 186.546 163.796 186.554 163.536V158.091V157.596C186.586 156.42 186.85 155.262 187.332 154.189C187.813 153.116 188.503 152.15 189.36 151.344C190.217 150.539 191.225 149.911 192.326 149.497C193.426 149.084 194.598 148.892 195.773 148.933L171.023 147.943C168.671 147.893 166.394 148.776 164.69 150.399C162.986 152.022 161.993 154.253 161.928 156.606V156.606Z" fill="url(#paint47_linear)"/>
<path d="M193.11 148.809C191.935 148.768 190.763 148.96 189.662 149.374C188.561 149.788 187.553 150.415 186.696 151.22C185.839 152.026 185.15 152.993 184.668 154.066C184.187 155.139 183.922 156.296 183.891 157.472V157.967V163.412C183.883 163.672 183.823 163.928 183.716 164.165C183.609 164.402 183.457 164.616 183.267 164.794C183.077 164.972 182.855 165.111 182.611 165.203C182.368 165.295 182.109 165.338 181.849 165.33H184.509C184.769 165.338 185.028 165.295 185.272 165.203C185.515 165.111 185.738 164.972 185.928 164.794C186.117 164.616 186.27 164.402 186.377 164.165C186.484 163.928 186.543 163.672 186.551 163.412V157.967V157.472C186.583 156.296 186.847 155.139 187.329 154.066C187.81 152.993 188.5 152.026 189.357 151.22C190.214 150.415 191.222 149.788 192.323 149.374C193.423 148.96 194.595 148.768 195.771 148.809H193.11Z" fill="url(#paint48_linear)"/>
<path d="M250.098 293.906C247.005 293.226 241.498 293.04 242.488 285.429H234.32C233.701 289.53 233.309 293.661 233.145 297.804C233.136 298.056 233.178 298.307 233.267 298.543C233.355 298.779 233.49 298.995 233.662 299.179C233.835 299.363 234.042 299.511 234.271 299.615C234.501 299.719 234.749 299.776 235.001 299.784H253.13C253.13 299.784 253.13 294.525 250.098 293.906Z" fill="url(#paint49_linear)"/>
<path d="M205.921 209.571C205.913 211.641 206.058 213.709 206.354 215.758C206.405 216.11 206.53 216.447 206.722 216.746C206.915 217.045 207.169 217.299 207.468 217.491L210.253 219.223C210.537 219.412 210.87 219.513 211.212 219.513C211.553 219.513 211.886 219.412 212.171 219.223L213.903 218.047C214.407 217.721 214.762 217.21 214.893 216.624C215.366 214.485 215.677 212.313 215.821 210.127C215.83 209.96 215.804 209.792 215.745 209.635C215.687 209.477 215.597 209.334 215.481 209.212C215.366 209.091 215.226 208.994 215.072 208.928C214.918 208.862 214.752 208.828 214.584 208.828H207.035C206.794 208.814 206.555 208.879 206.354 209.013C206.153 209.147 206.001 209.343 205.921 209.571V209.571Z" fill="url(#paint50_linear)"/>
<path d="M248.114 131.849C248.547 129.95 247.008 127.979 244.675 127.447C242.343 126.915 240.101 128.023 239.668 129.922C239.235 131.821 240.774 133.792 243.107 134.324C245.439 134.856 247.681 133.748 248.114 131.849Z" fill="url(#paint51_linear)"/>
<path d="M243.294 129.938L240.262 128.638C239.99 128.983 239.799 129.385 239.705 129.814C239.594 130.809 239.865 131.809 240.462 132.612C241.059 133.416 241.938 133.963 242.922 134.145L243.974 131.608C244.099 131.296 244.098 130.947 243.971 130.636C243.844 130.324 243.601 130.074 243.294 129.938V129.938Z" fill="url(#paint52_linear)"/>
<path d="M245.706 293.906C242.118 292.483 242.118 287.719 242.427 285.429H234.321V289.946V294.525V297.062C234.321 297.56 234.515 298.039 234.861 298.397C235.207 298.755 235.68 298.964 236.178 298.98H251.523C250.656 298.052 250.656 295.886 245.706 293.906Z" fill="url(#paint53_linear)"/>
<path d="M192.247 331.402C192.247 331.786 192.395 332.154 192.66 332.431C192.925 332.708 193.287 332.871 193.67 332.887H205.55C205.541 331.601 205.234 330.334 204.655 329.186C204.075 328.038 203.238 327.039 202.209 326.267C199.858 324.287 199.548 318.718 199.548 316.181C199.527 315.769 199.527 315.356 199.548 314.944H192.247V331.402Z" fill="url(#paint54_linear)"/>
<path d="M291.248 265.258C290.282 262.517 290.083 259.564 290.672 256.718C291.261 253.873 292.615 251.241 294.589 249.109C294.671 249.016 294.771 248.943 294.883 248.892C294.995 248.842 295.116 248.815 295.239 248.815C295.362 248.815 295.483 248.842 295.595 248.892C295.708 248.943 295.807 249.016 295.889 249.109C296.243 249.486 296.509 249.937 296.67 250.428C296.83 250.92 296.88 251.441 296.817 251.955C297.695 251.252 298.786 250.869 299.911 250.869C301.035 250.869 302.126 251.252 303.004 251.955C303.62 250.987 304.347 250.094 305.17 249.294C305.269 249.219 305.386 249.169 305.51 249.151C305.633 249.132 305.76 249.145 305.877 249.188C305.994 249.231 306.098 249.303 306.18 249.398C306.262 249.492 306.319 249.605 306.346 249.727C307.434 253.775 308.118 257.92 308.388 262.102C307.831 263.711 306.655 266.929 300.096 271.507" fill="url(#paint55_linear)"/>
<path d="M296.978 274.895C300.685 274.271 303.248 271.143 302.703 267.907C302.158 264.672 298.711 262.556 295.005 263.18C291.298 263.805 288.735 266.933 289.279 270.168C289.824 273.403 293.271 275.52 296.978 274.895Z" fill="url(#paint56_linear)"/>
<path d="M280.667 303.188C280.667 303.188 271.385 304.054 272.809 292.669C274.541 279.118 284.812 264.639 295.084 265.444C306.778 266.372 302.694 300.898 302.694 300.898C302.694 300.898 306.407 300.279 305.726 303.188H280.667Z" fill="url(#paint57_linear)"/>
<path d="M283.015 303.188C283.015 303.188 262.596 305.168 260.988 287.966C259.379 270.765 277.199 276.21 275.714 289.451C274.229 302.693 282.273 300.96 282.273 300.96" fill="url(#paint58_linear)"/>
<path d="M270.705 357.143C275.243 355.204 279.657 353.141 283.947 350.955C294.032 336.971 305.789 303.188 305.789 303.188H270.334C236.055 339.694 255.422 356.524 270.705 357.143Z" fill="url(#paint59_linear)"/>
<path d="M145.837 216.934V65.0924H141.135V217.057C142.69 216.812 144.271 216.771 145.837 216.934Z" fill="url(#paint60_linear)"/>
<path d="M141.2 151.656C141.243 151.353 141.224 151.045 141.143 150.751C141.062 150.456 140.922 150.182 140.73 149.944C140.539 149.706 140.3 149.51 140.03 149.368C139.76 149.226 139.463 149.141 139.158 149.119C137.178 149.119 136.003 151.284 135.755 156.729C135.508 162.174 144.418 165.639 144.418 165.639L145.346 157.534C144.199 157.005 143.211 156.184 142.483 155.151C141.756 154.119 141.313 152.914 141.2 151.656V151.656Z" fill="url(#paint61_linear)"/>
<path d="M146.582 151.903C145.839 150.975 145.839 151.903 145.839 151.903C145.841 152.496 145.619 153.067 145.218 153.503C144.816 153.939 144.265 154.208 143.674 154.254C141.508 154.254 141.137 151.718 141.137 151.718L139.714 159.266L145.901 160.318C145.696 160.117 145.532 159.876 145.42 159.61C145.309 159.345 145.251 159.059 145.251 158.771C145.251 158.483 145.309 158.198 145.42 157.932C145.532 157.667 145.696 157.426 145.901 157.224C146.448 156.464 146.797 155.579 146.916 154.65C147.035 153.721 146.92 152.777 146.582 151.903V151.903Z" fill="url(#paint62_linear)"/>
<path d="M158.707 166.382L159.078 157.224C159.19 155.512 159.961 153.91 161.231 152.756C162.501 151.601 164.169 150.985 165.884 151.037H173.557L166.751 143.303C166.751 143.303 161.801 159.452 145.961 157.41C139.092 156.544 135.318 168.919 158.336 166.32L158.707 166.382Z" fill="url(#paint63_linear)"/>
<path d="M144.229 68.0626C145.275 66.9864 145.853 65.541 145.838 64.0407V32.2989C145.838 32.2989 145.529 20.357 132.411 32.2989C119.294 44.2407 99.7413 75.6114 83.3444 57.977C66.9475 40.3426 31.7406 108.591 25.2438 95.7207C25.2438 95.7207 22.4594 118.491 40.96 111.004C40.96 111.004 32.7925 114.654 36.4431 126.225C37.2279 128.982 38.5999 131.536 40.465 133.712C41.1201 134.366 41.9136 134.865 42.7872 135.172C43.6608 135.479 44.5921 135.586 45.5125 135.485C46.4329 135.384 47.3189 135.078 48.1051 134.589C48.8914 134.1 49.558 133.441 50.0556 132.66C57.4188 120.285 78.085 88.7289 85.3244 100.485C95.2244 116.696 135.629 76.787 144.229 68.0626Z" fill="url(#paint64_linear)"/>
<path d="M83.3445 57.9769C69.2989 42.57 36.1957 91.5131 23.1401 97.1438C22.066 97.7108 21.257 98.6764 20.8868 99.8332C20.5166 100.99 20.6147 102.246 21.1601 103.331C22.3309 106.466 24.5823 109.08 27.5089 110.702C30.4356 112.324 33.8452 112.848 37.1239 112.179C37.2764 112.13 37.4408 112.131 37.5925 112.183C37.7442 112.235 37.8751 112.334 37.9657 112.466C38.0562 112.599 38.1015 112.757 38.0947 112.917C38.088 113.077 38.0296 113.231 37.9282 113.355C36.5489 115.169 35.6784 117.318 35.4065 119.58C35.1345 121.842 35.4711 124.136 36.3814 126.225C37.269 129.556 39.0944 132.563 41.6407 134.887C42.2212 135.372 42.8993 135.725 43.6286 135.923C44.358 136.122 45.1216 136.161 45.8674 136.037C46.6131 135.914 47.3236 135.632 47.9502 135.209C48.5769 134.786 49.1051 134.233 49.4989 133.588C56.367 122.203 77.8995 88.4813 85.2626 100.547L85.572 101.042C81.7976 94.2975 85.572 70.5994 85.572 63.9169C85.6492 62.0676 85.1754 60.2371 84.2107 58.6575L83.3445 57.9769Z" fill="url(#paint65_linear)"/>
</g>
<defs>
<linearGradient id="paint0_linear" x1="7996.84" y1="2449.9" x2="8508.72" y2="-629.207" gradientUnits="userSpaceOnUse">
<stop stop-color="#D1EFE7"/>
<stop offset="0.53" stop-color="#97EFE7"/>
<stop offset="1" stop-color="#3CCBE3"/>
</linearGradient>
<linearGradient id="paint1_linear" x1="7630.55" y1="1724.84" x2="7630.55" y2="443.186" gradientUnits="userSpaceOnUse">
<stop stop-color="#D1EFE7"/>
<stop offset="0.53" stop-color="#97EFE7"/>
<stop offset="1" stop-color="#3CCBE3"/>
</linearGradient>
<linearGradient id="paint2_linear" x1="8487.19" y1="6995.88" x2="8487.19" y2="4811" gradientUnits="userSpaceOnUse">
<stop stop-color="#D1EFE7"/>
<stop offset="0.53" stop-color="#97EFE7"/>
<stop offset="1" stop-color="#3CCBE3"/>
</linearGradient>
<linearGradient id="paint3_linear" x1="275.346" y1="47.5818" x2="248.554" y2="173.931" gradientUnits="userSpaceOnUse">
<stop stop-color="#F9D5C5"/>
<stop offset="1" stop-color="#F78E6B"/>
</linearGradient>
<linearGradient id="paint4_linear" x1="753.694" y1="205.392" x2="667.053" y2="543.641" gradientUnits="userSpaceOnUse">
<stop stop-color="#F9D5C5"/>
<stop offset="1" stop-color="#F78E6B"/>
</linearGradient>
<linearGradient id="paint5_linear" x1="230.733" y1="107.044" x2="226.155" y2="106.363" gradientUnits="userSpaceOnUse">
<stop stop-color="white" stop-opacity="0"/>
<stop offset="1"/>
</linearGradient>
<linearGradient id="paint6_linear" x1="229.248" y1="59.6474" x2="207.344" y2="113.293" gradientUnits="userSpaceOnUse">
<stop stop-color="#208CA3"/>
<stop offset="0.42" stop-color="#3C4178"/>
<stop offset="1" stop-color="#241B3C"/>
</linearGradient>
<linearGradient id="paint7_linear" x1="1448.48" y1="1153.64" x2="1645.61" y2="847.241" gradientUnits="userSpaceOnUse">
<stop stop-color="#208CA3"/>
<stop offset="0.42" stop-color="#3C4178"/>
<stop offset="1" stop-color="#241B3C"/>
</linearGradient>
<linearGradient id="paint8_linear" x1="198.125" y1="397.114" x2="198.125" y2="144.416" gradientUnits="userSpaceOnUse">
<stop stop-color="#3DB6D3"/>
<stop offset="0.5" stop-color="#3D6FD3"/>
<stop offset="1" stop-color="#252784"/>
</linearGradient>
<linearGradient id="paint9_linear" x1="1445.01" y1="7673.31" x2="1625.11" y2="4902.84" gradientUnits="userSpaceOnUse">
<stop stop-color="#3DB6D3"/>
<stop offset="0.5" stop-color="#3D6FD3"/>
<stop offset="1" stop-color="#252784"/>
</linearGradient>
<linearGradient id="paint10_linear" x1="1178.24" y1="3573.44" x2="1713" y2="1725.4" gradientUnits="userSpaceOnUse">
<stop stop-color="#3DB6D3"/>
<stop offset="0.5" stop-color="#3D6FD3"/>
<stop offset="1" stop-color="#252784"/>
</linearGradient>
<linearGradient id="paint11_linear" x1="1717.27" y1="5917.78" x2="2886.9" y2="2983.83" gradientUnits="userSpaceOnUse">
<stop stop-color="#3DB6D3"/>
<stop offset="0.5" stop-color="#3D6FD3"/>
<stop offset="1" stop-color="#252784"/>
</linearGradient>
<linearGradient id="paint12_linear" x1="222.008" y1="326.391" x2="174.612" y2="154.687" gradientUnits="userSpaceOnUse">
<stop offset="0.04" stop-color="#B0462A"/>
<stop offset="0.51" stop-color="#70332A"/>
<stop offset="0.99" stop-color="#4D2C2A"/>
</linearGradient>
<linearGradient id="paint13_linear" x1="1127.48" y1="7095.09" x2="-309.626" y2="4856.74" gradientUnits="userSpaceOnUse">
<stop offset="0.04" stop-color="#B0462A"/>
<stop offset="0.51" stop-color="#70332A"/>
<stop offset="0.99" stop-color="#4D2C2A"/>
</linearGradient>
<linearGradient id="paint14_linear" x1="228.506" y1="379.603" x2="175.912" y2="288.337" gradientUnits="userSpaceOnUse">
<stop stop-color="#182EBD"/>
<stop offset="0.58" stop-color="#0D1226"/>
</linearGradient>
<linearGradient id="paint15_linear" x1="2541.79" y1="5475.85" x2="1375.94" y2="2972.99" gradientUnits="userSpaceOnUse">
<stop offset="0.04" stop-color="#B0462A"/>
<stop offset="0.51" stop-color="#70332A"/>
<stop offset="0.99" stop-color="#4D2C2A"/>
</linearGradient>
<linearGradient id="paint16_linear" x1="2454.61" y1="5216.29" x2="1989.29" y2="2999.02" gradientUnits="userSpaceOnUse">
<stop offset="0.04" stop-color="#B0462A"/>
<stop offset="0.51" stop-color="#70332A"/>
<stop offset="0.99" stop-color="#4D2C2A"/>
</linearGradient>
<linearGradient id="paint17_linear" x1="3108.75" y1="2719.58" x2="2190.48" y2="2578.19" gradientUnits="userSpaceOnUse">
<stop stop-color="#208CA3"/>
<stop offset="0.42" stop-color="#3C4178"/>
<stop offset="1" stop-color="#241B3C"/>
</linearGradient>
<linearGradient id="paint18_linear" x1="1082.5" y1="1005.24" x2="1152.17" y2="985.164" gradientUnits="userSpaceOnUse">
<stop stop-color="#208CA3"/>
<stop offset="0.42" stop-color="#3C4178"/>
<stop offset="1" stop-color="#241B3C"/>
</linearGradient>
<linearGradient id="paint19_linear" x1="3054.92" y1="891.017" x2="2408.97" y2="1608.68" gradientUnits="userSpaceOnUse">
<stop stop-color="#208CA3"/>
<stop offset="0.42" stop-color="#3C4178"/>
<stop offset="1" stop-color="#241B3C"/>
</linearGradient>
<linearGradient id="paint20_linear" x1="234.073" y1="110.199" x2="221.884" y2="136.558" gradientUnits="userSpaceOnUse">
<stop stop-color="#FFD600"/>
<stop offset="0.22" stop-color="#FF9C38"/>
<stop offset="1" stop-color="#FF5147"/>
</linearGradient>
<linearGradient id="paint21_linear" x1="1960.36" y1="1267.64" x2="1903.85" y2="1046.17" gradientUnits="userSpaceOnUse">
<stop stop-color="#208CA3"/>
<stop offset="0.42" stop-color="#3C4178"/>
<stop offset="1" stop-color="#241B3C"/>
</linearGradient>
<linearGradient id="paint22_linear" x1="1546.45" y1="1687.06" x2="1174.16" y2="1524.34" gradientUnits="userSpaceOnUse">
<stop stop-color="#FFD600"/>
<stop offset="0.22" stop-color="#FF9C38"/>
<stop offset="1" stop-color="#FF5147"/>
</linearGradient>
<linearGradient id="paint23_linear" x1="576.159" y1="844.47" x2="541.629" y2="834.174" gradientUnits="userSpaceOnUse">
<stop stop-color="#FFD600"/>
<stop offset="0.22" stop-color="#FF9C38"/>
<stop offset="1" stop-color="#FF5147"/>
</linearGradient>
<linearGradient id="paint24_linear" x1="200.911" y1="175.973" x2="200.911" y2="107.539" gradientUnits="userSpaceOnUse">
<stop stop-color="#7FF1A4"/>
<stop offset="0.52" stop-color="#2FBCA4"/>
<stop offset="1" stop-color="#2F7DA4"/>
</linearGradient>
<linearGradient id="paint25_linear" x1="20.0046" y1="304.63" x2="21.9127" y2="256.705" gradientUnits="userSpaceOnUse">
<stop stop-color="#7FF1A4"/>
<stop offset="0.52" stop-color="#2FBCA4"/>
<stop offset="1" stop-color="#2F7DA4"/>
</linearGradient>
<linearGradient id="paint26_linear" x1="54.0803" y1="306.544" x2="55.9885" y2="258.619" gradientUnits="userSpaceOnUse">
<stop stop-color="#7FF1A4"/>
<stop offset="0.52" stop-color="#2FBCA4"/>
<stop offset="1" stop-color="#2F7DA4"/>
</linearGradient>
<linearGradient id="paint27_linear" x1="685.596" y1="450.881" x2="685.596" y2="366.23" gradientUnits="userSpaceOnUse">
<stop stop-color="#7FF1A4"/>
<stop offset="0.52" stop-color="#2FBCA4"/>
<stop offset="1" stop-color="#2F7DA4"/>
</linearGradient>
<linearGradient id="paint28_linear" x1="452.992" y1="277.562" x2="452.992" y2="249.505" gradientUnits="userSpaceOnUse">
<stop stop-color="#7FF1A4"/>
<stop offset="0.52" stop-color="#2FBCA4"/>
<stop offset="1" stop-color="#2F7DA4"/>
</linearGradient>
<linearGradient id="paint29_linear" x1="195.549" y1="129.17" x2="195.967" y2="118.66" gradientUnits="userSpaceOnUse">
<stop stop-color="#FFD600"/>
<stop offset="0.3" stop-color="#FF9C38"/>
<stop offset="1" stop-color="#FF5147"/>
</linearGradient>
<linearGradient id="paint30_linear" x1="617.488" y1="220.621" x2="617.488" y2="212.47" gradientUnits="userSpaceOnUse">
<stop stop-color="#FFD600"/>
<stop offset="0.3" stop-color="#FF9C38"/>
<stop offset="1" stop-color="#FF5147"/>
</linearGradient>
<linearGradient id="paint31_linear" x1="201.889" y1="184.473" x2="138.404" y2="156.804" gradientUnits="userSpaceOnUse">
<stop stop-color="#ABCF9C"/>
<stop offset="0.17" stop-color="#84CF9C"/>
<stop offset="0.46" stop-color="#39CE9C"/>
<stop offset="1" stop-color="#007A75"/>
</linearGradient>
<linearGradient id="paint32_linear" x1="-917.566" y1="1206.84" x2="-898.972" y2="739.828" gradientUnits="userSpaceOnUse">
<stop stop-color="#FFD600"/>
<stop offset="0.22" stop-color="#FF9C38"/>
<stop offset="1" stop-color="#FF5147"/>
</linearGradient>
<linearGradient id="paint33_linear" x1="2050.35" y1="2634.37" x2="1218.57" y2="2315.01" gradientUnits="userSpaceOnUse">
<stop stop-color="#FFD600"/>
<stop offset="0.22" stop-color="#FF9C38"/>
<stop offset="1" stop-color="#FF5147"/>
</linearGradient>
<linearGradient id="paint34_linear" x1="-1680.27" y1="530.354" x2="-1678.27" y2="480.116" gradientUnits="userSpaceOnUse">
<stop stop-color="#FFD600"/>
<stop offset="0.22" stop-color="#FF9C38"/>
<stop offset="1" stop-color="#FF5147"/>
</linearGradient>
<linearGradient id="paint35_linear" x1="-4173.53" y1="2316.99" x2="-4108.77" y2="690.495" gradientUnits="userSpaceOnUse">
<stop stop-color="#FFD600"/>
<stop offset="0.22" stop-color="#FF9C38"/>
<stop offset="1" stop-color="#FF5147"/>
</linearGradient>
<linearGradient id="paint36_linear" x1="-2215.58" y1="564.206" x2="-2213.21" y2="504.811" gradientUnits="userSpaceOnUse">
<stop stop-color="#FFD600"/>
<stop offset="0.22" stop-color="#FF9C38"/>
<stop offset="1" stop-color="#FF5147"/>
</linearGradient>
<linearGradient id="paint37_linear" x1="1483.66" y1="683.102" x2="1483.66" y2="603.356" gradientUnits="userSpaceOnUse">
<stop stop-color="#FFD600"/>
<stop offset="0.22" stop-color="#FF9C38"/>
<stop offset="1" stop-color="#FF5147"/>
</linearGradient>
<linearGradient id="paint38_linear" x1="-909.639" y1="426.064" x2="-982.139" y2="358.864" gradientUnits="userSpaceOnUse">
<stop stop-color="#FFD600"/>
<stop offset="0.22" stop-color="#FF9C38"/>
<stop offset="1" stop-color="#FF5147"/>
</linearGradient>
<linearGradient id="paint39_linear" x1="281.963" y1="205.363" x2="185.995" y2="156.915" gradientUnits="userSpaceOnUse">
<stop stop-color="#FFD600"/>
<stop offset="0.27" stop-color="#FF9C38"/>
<stop offset="1" stop-color="#FF5147"/>
</linearGradient>
<linearGradient id="paint40_linear" x1="924.74" y1="1382.28" x2="701.765" y2="1361.8" gradientUnits="userSpaceOnUse">
<stop stop-color="#FFD600"/>
<stop offset="0.22" stop-color="#FF9C38"/>
<stop offset="1" stop-color="#FF5147"/>
</linearGradient>
<linearGradient id="paint41_linear" x1="-2764.64" y1="1269.11" x2="-2734.88" y2="521.719" gradientUnits="userSpaceOnUse">
<stop stop-color="#FFD600"/>
<stop offset="0.22" stop-color="#FF9C38"/>
<stop offset="1" stop-color="#FF5147"/>
</linearGradient>
<linearGradient id="paint42_linear" x1="270.672" y1="1042.39" x2="191.917" y2="1034.51" gradientUnits="userSpaceOnUse">
<stop stop-color="#FFD600"/>
<stop offset="0.22" stop-color="#FF9C38"/>
<stop offset="1" stop-color="#FF5147"/>
</linearGradient>
<linearGradient id="paint43_linear" x1="74.6856" y1="285.409" x2="76.0058" y2="252.251" gradientUnits="userSpaceOnUse">
<stop stop-color="#FFD600"/>
<stop offset="0.22" stop-color="#FF9C38"/>
<stop offset="1" stop-color="#FF5147"/>
</linearGradient>
<linearGradient id="paint44_linear" x1="606.427" y1="251.655" x2="606.788" y2="242.581" gradientUnits="userSpaceOnUse">
<stop stop-color="#FFD600"/>
<stop offset="0.22" stop-color="#FF9C38"/>
<stop offset="1" stop-color="#FF5147"/>
</linearGradient>
<linearGradient id="paint45_linear" x1="-580.276" y1="378.443" x2="-578.177" y2="325.723" gradientUnits="userSpaceOnUse">
<stop stop-color="#208CA3"/>
<stop offset="0.42" stop-color="#3C4178"/>
<stop offset="1" stop-color="#241B3C"/>
</linearGradient>
<linearGradient id="paint46_linear" x1="-529.634" y1="381.136" x2="-527.535" y2="328.402" gradientUnits="userSpaceOnUse">
<stop stop-color="#208CA3"/>
<stop offset="0.42" stop-color="#3C4178"/>
<stop offset="1" stop-color="#241B3C"/>
</linearGradient>
<linearGradient id="paint47_linear" x1="-2826.07" y1="417.181" x2="-2822.72" y2="332.832" gradientUnits="userSpaceOnUse">
<stop stop-color="#FFD600"/>
<stop offset="0.22" stop-color="#FF9C38"/>
<stop offset="1" stop-color="#FF5147"/>
</linearGradient>
<linearGradient id="paint48_linear" x1="-493.235" y1="461.192" x2="-536.551" y2="421.226" gradientUnits="userSpaceOnUse">
<stop stop-color="#FFD600"/>
<stop offset="0.22" stop-color="#FF9C38"/>
<stop offset="1" stop-color="#FF5147"/>
</linearGradient>
<linearGradient id="paint49_linear" x1="1121.15" y1="1104.09" x2="1021.48" y2="863.294" gradientUnits="userSpaceOnUse">
<stop stop-color="#182EBD"/>
<stop offset="0.58" stop-color="#0D1226"/>
</linearGradient>
<linearGradient id="paint50_linear" x1="536.249" y1="642.91" x2="551.099" y2="515.77" gradientUnits="userSpaceOnUse">
<stop offset="0.04" stop-color="#B0462A"/>
<stop offset="0.51" stop-color="#70332A"/>
<stop offset="0.99" stop-color="#4D2C2A"/>
</linearGradient>
<linearGradient id="paint51_linear" x1="521.163" y1="296.356" x2="504.449" y2="349.618" gradientUnits="userSpaceOnUse">
<stop stop-color="#208CA3"/>
<stop offset="0.42" stop-color="#3C4178"/>
<stop offset="1" stop-color="#241B3C"/>
</linearGradient>
<linearGradient id="paint52_linear" x1="403.646" y1="248.413" x2="423.043" y2="243.802" gradientUnits="userSpaceOnUse">
<stop stop-color="#208CA3"/>
<stop offset="0.42" stop-color="#3C4178"/>
<stop offset="1" stop-color="#241B3C"/>
</linearGradient>
<linearGradient id="paint53_linear" x1="979.308" y1="1037.89" x2="915.914" y2="897.74" gradientUnits="userSpaceOnUse">
<stop stop-color="#182EBD"/>
<stop offset="0.58" stop-color="#0D1226"/>
</linearGradient>
<linearGradient id="paint54_linear" x1="670.628" y1="1387.08" x2="562.372" y2="1247.15" gradientUnits="userSpaceOnUse">
<stop stop-color="#182EBD"/>
<stop offset="0.58" stop-color="#0D1226"/>
</linearGradient>
<linearGradient id="paint55_linear" x1="1158.39" y1="1005.6" x2="1170.65" y2="1281.79" gradientUnits="userSpaceOnUse">
<stop stop-color="#182EBD"/>
<stop offset="0.58" stop-color="#0D1226"/>
</linearGradient>
<linearGradient id="paint56_linear" x1="1027.22" y1="755.776" x2="918.007" y2="795.214" gradientUnits="userSpaceOnUse">
<stop stop-color="#3DB6D3"/>
<stop offset="0.5" stop-color="#3D6FD3"/>
<stop offset="1" stop-color="#252784"/>
</linearGradient>
<linearGradient id="paint57_linear" x1="1830.34" y1="1780.07" x2="1821.73" y2="2036.6" gradientUnits="userSpaceOnUse">
<stop stop-color="#182EBD"/>
<stop offset="0.58" stop-color="#0D1226"/>
</linearGradient>
<linearGradient id="paint58_linear" x1="1207.4" y1="1393.06" x2="1263.23" y2="1593.88" gradientUnits="userSpaceOnUse">
<stop stop-color="#182EBD"/>
<stop offset="0.58" stop-color="#0D1226"/>
</linearGradient>
<linearGradient id="paint59_linear" x1="2706.2" y1="3858.82" x2="2706.2" y2="2374.52" gradientUnits="userSpaceOnUse">
<stop stop-color="#3DB6D3"/>
<stop offset="0.5" stop-color="#3D6FD3"/>
<stop offset="1" stop-color="#252784"/>
</linearGradient>
<linearGradient id="paint60_linear" x1="250.233" y1="5105.77" x2="250.233" y2="826.437" gradientUnits="userSpaceOnUse">
<stop stop-color="#182EBD"/>
<stop offset="0.58" stop-color="#0D1226"/>
</linearGradient>
<linearGradient id="paint61_linear" x1="397.52" y1="215.697" x2="283.736" y2="526.651" gradientUnits="userSpaceOnUse">
<stop stop-color="#F9D5C5"/>
<stop offset="1" stop-color="#F78E6B"/>
</linearGradient>
<linearGradient id="paint62_linear" x1="340.187" y1="187.772" x2="294.582" y2="364.356" gradientUnits="userSpaceOnUse">
<stop stop-color="#F9D5C5"/>
<stop offset="1" stop-color="#F78E6B"/>
</linearGradient>
<linearGradient id="paint63_linear" x1="896.423" y1="683.076" x2="1013.48" y2="832.206" gradientUnits="userSpaceOnUse">
<stop stop-color="#208CA3"/>
<stop offset="0.42" stop-color="#3C4178"/>
<stop offset="1" stop-color="#241B3C"/>
</linearGradient>
<linearGradient id="paint64_linear" x1="1988.39" y1="2836.85" x2="1743.31" y2="1146.39" gradientUnits="userSpaceOnUse">
<stop stop-color="#3DB6D3"/>
<stop offset="0.5" stop-color="#3D6FD3"/>
<stop offset="1" stop-color="#252784"/>
</linearGradient>
<linearGradient id="paint65_linear" x1="717.194" y1="3126.91" x2="490.099" y2="1057.57" gradientUnits="userSpaceOnUse">
<stop stop-color="#3DB6D3"/>
<stop offset="0.5" stop-color="#3D6FD3"/>
<stop offset="1" stop-color="#252784"/>
</linearGradient>
<clipPath id="clip0">
<rect width="396" height="396" fill="white"/>
</clipPath>
</defs>
</svg>
