<svg xmlns="http://www.w3.org/2000/svg" xmlns:xlink="http://www.w3.org/1999/xlink" viewBox="0 0 64 64"><defs><style>.cls-1{isolation:isolate;}.cls-2{fill:url(#linear-gradient);}.cls-3{fill:url(#linear-gradient-2);}.cls-4{fill:url(#linear-gradient-3);}.cls-5{fill:url(#linear-gradient-4);}.cls-6{fill:url(#linear-gradient-5);}.cls-7{fill:url(#linear-gradient-6);}.cls-8{fill:url(#linear-gradient-7);}.cls-9{fill:url(#linear-gradient-8);}.cls-10{fill:url(#linear-gradient-9);}.cls-11{fill:url(#linear-gradient-10);}.cls-12{fill:url(#linear-gradient-11);}.cls-13{fill:url(#linear-gradient-12);}.cls-14{fill:url(#linear-gradient-13);}.cls-15{fill:url(#linear-gradient-14);}.cls-16{fill:#f9aa8f;}.cls-17{fill:url(#linear-gradient-15);}.cls-18{fill:url(#linear-gradient-16);}.cls-19{fill:url(#linear-gradient-17);}.cls-20{fill:url(#linear-gradient-18);}.cls-21{fill:url(#linear-gradient-19);}.cls-22{fill:url(#linear-gradient-20);}.cls-23{fill:url(#linear-gradient-21);}.cls-24{fill:url(#linear-gradient-22);}.cls-25{fill:url(#linear-gradient-23);}.cls-26{fill:url(#linear-gradient-24);}.cls-27{opacity:0.49;mix-blend-mode:color-burn;fill:url(#linear-gradient-25);}.cls-28{fill:url(#linear-gradient-26);}.cls-29{fill:url(#linear-gradient-27);}.cls-30{fill:url(#linear-gradient-28);}.cls-31{fill:url(#linear-gradient-29);}.cls-32{fill:#1b1c37;}.cls-33{fill:url(#linear-gradient-30);}.cls-34{fill:url(#linear-gradient-31);}.cls-35{fill:url(#linear-gradient-32);}.cls-36{fill:url(#linear-gradient-33);}.cls-37{fill:url(#linear-gradient-34);}.cls-38{fill:none;}.cls-39{fill:url(#linear-gradient-35);}.cls-40{fill:url(#linear-gradient-36);}.cls-41{fill:url(#linear-gradient-37);}.cls-42{fill:url(#linear-gradient-38);}.cls-43{fill:url(#linear-gradient-39);}.cls-44{fill:url(#linear-gradient-40);}.cls-45{fill:url(#linear-gradient-41);}.cls-46{fill:url(#linear-gradient-42);}.cls-47{fill:url(#linear-gradient-43);}.cls-48{fill:url(#linear-gradient-44);}</style><linearGradient id="linear-gradient" x1="32" y1="75.75" x2="32" y2="22.32" gradientUnits="userSpaceOnUse"><stop offset="0.02" stop-color="#edd7ad"/><stop offset="0.52" stop-color="#ff9661"/><stop offset="1" stop-color="#e74a69"/></linearGradient><linearGradient id="linear-gradient-2" x1="31.99" y1="66.5" x2="31.99" y2="82.51" xlink:href="#linear-gradient"/><linearGradient id="linear-gradient-3" x1="31.21" y1="59.9" x2="30.81" y2="54.89" gradientUnits="userSpaceOnUse"><stop offset="0" stop-color="#3d6fd3"/><stop offset="0.54" stop-color="#2d3a78"/><stop offset="1" stop-color="#27195d"/></linearGradient><linearGradient id="linear-gradient-4" x1="33.28" y1="55.13" x2="28.9" y2="44.85" gradientUnits="userSpaceOnUse"><stop offset="0" stop-color="#f9d5c5"/><stop offset="1" stop-color="#f78e6b"/></linearGradient><linearGradient id="linear-gradient-5" x1="34.03" y1="59.16" x2="35.28" y2="33.32" xlink:href="#linear-gradient-3"/><linearGradient id="linear-gradient-6" x1="34.24" y1="51.29" x2="34.84" y2="45.26" gradientUnits="userSpaceOnUse"><stop offset="0" stop-color="#fff" stop-opacity="0"/><stop offset="1"/></linearGradient><linearGradient id="linear-gradient-7" x1="32.3" y1="51.1" x2="32.91" y2="45.07" xlink:href="#linear-gradient-3"/><linearGradient id="linear-gradient-8" x1="23.54" y1="59.28" x2="19.16" y2="49" xlink:href="#linear-gradient-4"/><linearGradient id="linear-gradient-9" x1="21.96" y1="60.64" x2="21.55" y2="55.63" xlink:href="#linear-gradient-3"/><linearGradient id="linear-gradient-10" x1="27.08" y1="58.82" x2="28.33" y2="32.98" xlink:href="#linear-gradient-3"/><linearGradient id="linear-gradient-11" x1="21.03" y1="53.11" x2="23.71" y2="46.27" xlink:href="#linear-gradient-3"/><linearGradient id="linear-gradient-12" x1="39.97" y1="8.3" x2="30.23" y2="23.23" xlink:href="#linear-gradient-4"/><linearGradient id="linear-gradient-13" x1="31.93" y1="28.33" x2="34.14" y2="14.92" xlink:href="#linear-gradient-4"/><linearGradient id="linear-gradient-14" x1="51.82" y1="21.81" x2="16.24" y2="12.43" gradientUnits="userSpaceOnUse"><stop offset="0.02" stop-color="#97efe7"/><stop offset="0.52" stop-color="#3db6d3"/><stop offset="1" stop-color="#3d6fd3"/></linearGradient><linearGradient id="linear-gradient-15" x1="50.2" y1="27.95" x2="14.62" y2="18.57" xlink:href="#linear-gradient-14"/><linearGradient id="linear-gradient-16" x1="38.29" y1="26.94" x2="24.28" y2="25.33" xlink:href="#linear-gradient-14"/><linearGradient id="linear-gradient-17" x1="55.66" y1="25.89" x2="-4.82" y2="-2.28" xlink:href="#linear-gradient-4"/><linearGradient id="linear-gradient-18" x1="23.77" y1="23.66" x2="27.8" y2="5.42" xlink:href="#linear-gradient-4"/><linearGradient id="linear-gradient-19" x1="57.13" y1="22.74" x2="-3.35" y2="-5.42" xlink:href="#linear-gradient-4"/><linearGradient id="linear-gradient-20" x1="23.02" y1="23.49" x2="27.04" y2="5.25" xlink:href="#linear-gradient-4"/><linearGradient id="linear-gradient-21" x1="20.37" y1="30.84" x2="20.37" y2="-3.67" gradientUnits="userSpaceOnUse"><stop offset="0.07" stop-color="#fff"/><stop offset="0.79" stop-color="#d1d3d4"/></linearGradient><linearGradient id="linear-gradient-22" x1="24.94" y1="-1.57" x2="27.56" y2="11.24" gradientUnits="userSpaceOnUse"><stop offset="0" stop-color="#a37327"/><stop offset="0.52" stop-color="#7a4127"/><stop offset="1" stop-color="#472727"/></linearGradient><linearGradient id="linear-gradient-23" x1="33.27" y1="8.19" x2="28.51" y2="3.6" xlink:href="#linear-gradient-6"/><linearGradient id="linear-gradient-24" x1="31.29" y1="10.24" x2="26.53" y2="5.65" xlink:href="#linear-gradient-22"/><linearGradient id="linear-gradient-25" x1="29.64" y1="11.11" x2="29.59" y2="7.29" xlink:href="#linear-gradient-6"/><linearGradient id="linear-gradient-26" x1="33.77" y1="10.1" x2="28.96" y2="7.97" xlink:href="#linear-gradient-3"/><linearGradient id="linear-gradient-27" x1="32.9" y1="12.06" x2="28.09" y2="9.94" xlink:href="#linear-gradient-3"/><linearGradient id="linear-gradient-28" x1="27.62" y1="12.5" x2="24.45" y2="8.88" xlink:href="#linear-gradient-3"/><linearGradient id="linear-gradient-29" x1="29.48" y1="3.39" x2="27" y2="12.34" xlink:href="#linear-gradient-3"/><linearGradient id="linear-gradient-30" x1="48" y1="14.4" x2="46.44" y2="13.19" xlink:href="#linear-gradient-3"/><linearGradient id="linear-gradient-31" x1="59" y1="18.71" x2="-1.48" y2="-9.45" xlink:href="#linear-gradient-4"/><linearGradient id="linear-gradient-32" x1="52.02" y1="33.72" x2="-8.46" y2="5.56" xlink:href="#linear-gradient-4"/><linearGradient id="linear-gradient-33" x1="16.17" y1="35.88" x2="21.81" y2="16.17" xlink:href="#linear-gradient-4"/><linearGradient id="linear-gradient-34" x1="51.05" y1="24.75" x2="15.47" y2="15.36" xlink:href="#linear-gradient-14"/><linearGradient id="linear-gradient-35" x1="37.19" y1="28.57" x2="32.37" y2="26.56" xlink:href="#linear-gradient-3"/><linearGradient id="linear-gradient-36" x1="36.27" y1="30.78" x2="31.45" y2="28.77" xlink:href="#linear-gradient-3"/><linearGradient id="linear-gradient-37" x1="36.72" y1="29.72" x2="31.89" y2="27.71" xlink:href="#linear-gradient-3"/><linearGradient id="linear-gradient-38" x1="50.78" y1="36.37" x2="-9.7" y2="8.21" xlink:href="#linear-gradient-4"/><linearGradient id="linear-gradient-39" x1="58.95" y1="18.83" x2="-1.53" y2="-9.33" xlink:href="#linear-gradient-4"/><linearGradient id="linear-gradient-40" x1="32.58" y1="22.46" x2="10.41" y2="0.2" gradientTransform="translate(7.19 -7.97) rotate(17.31)" xlink:href="#linear-gradient-14"/><linearGradient id="linear-gradient-41" x1="54" y1="24.57" x2="54" y2="7.71" xlink:href="#linear-gradient"/><linearGradient id="linear-gradient-42" x1="60.92" y1="19.09" x2="48.16" y2="6.33" xlink:href="#linear-gradient"/><linearGradient id="linear-gradient-43" x1="54" y1="15.57" x2="54" y2="2.41" xlink:href="#linear-gradient"/><linearGradient id="linear-gradient-44" x1="14.74" y1="50.5" x2="14.74" y2="21.84" xlink:href="#linear-gradient"/></defs><title>virtual reality</title><g class="cls-1"><g id="Layer_1" data-name="Layer 1"><path class="cls-2" d="M32,4A28.31,28.31,0,0,0,4,32,28,28,0,1,0,32,4Z"/><path class="cls-3" d="M32,53.17c-6.43,0-12.44.22-17.62.6a28,28,0,0,0,35.22,0C44.43,53.39,38.42,53.17,32,53.17Z"/><polygon class="cls-4" points="29.33 50.05 31.56 53.75 31.53 50.28 30.94 49.46 29.33 50.05"/><path class="cls-5" d="M31.56,49.91v1.63s-1.61-1.55-.4-2.3Z"/><path class="cls-6" d="M40.81,38.9C40,36.37,33.75,29,33.75,29l-4.41,5.92,6,6.5-4.52,8,.78.82S41.56,41.44,40.81,38.9Z"/><path class="cls-7" d="M35.26,41.59l-.11.2h0A1.91,1.91,0,0,0,35.26,41.59Z"/><path class="cls-8" d="M31.45,37.19l3.9,4.21A5.14,5.14,0,0,0,35,37c-1.47-2.9,0-6.42,0-6.42Z"/><path class="cls-9" d="M22.62,55.55v2.18s-2.19-2-.58-3.07Z"/><path class="cls-10" d="M22.05,54.66l-1.68,1.07L23.1,60l-.47-3.57S21.14,55.24,22.05,54.66Z"/><path class="cls-11" d="M22.62,55.55l-.94-1.47,4.25-11.16a5.9,5.9,0,0,0,.19-3.6c-3.58-13.61,2.72-17.25,2.72-17.25h0L33.75,29C36,39.87,22.62,55.55,22.62,55.55Z"/><path class="cls-12" d="M25.13,45c1.11-2.92,2.15-3.85,2.86-6.22s5.86-6.49,5.86-6.49L25,31a29.06,29.06,0,0,0,1.09,8.35,5.91,5.91,0,0,1-.19,3.6Z"/><path class="cls-13" d="M29.36,13.7S36,17.93,43.54,12.42L44,13s-6.73,9.31-16.52,4.29"/><path class="cls-14" d="M30.2,15.27l-.25,3a11.41,11.41,0,0,0,7.58-.32C32,17.94,30.2,15.27,30.2,15.27Z"/><path class="cls-15" d="M27.51,17.24a12.74,12.74,0,0,0,5.72,1.49A7.8,7.8,0,0,0,34,15.17v0a13.58,13.58,0,0,1-4.69-1.44Z"/><path class="cls-16" d="M43.66,11.88l-.16.45s0,1.07.36.83a2.2,2.2,0,0,1,1-.25Z"/><path class="cls-17" d="M25.06,13s.08.19-1.84,1.88c-1.55,1.37,3.29,8.7,1.44,15.18-.66,2.3-3.29.69.65,2.13,6,2.19,8.56.92,9.52-1.26,1.34-3-3.23-16.07-5.27-17.14-1.27-.67-3.51-1.15-3.91-3.27"/><path class="cls-18" d="M25.32,32.21a16.15,16.15,0,0,0,5.16,1.14c-6.19-.24-.9-7.19-.9-7.19l-2.47-.64a14.87,14.87,0,0,0-1.78-7.42L23.26,18c.85,3.06,2.62,7.82,1.4,12.07C24,32.38,21.38,30.77,25.32,32.21Z"/><path class="cls-19" d="M24.45,10.91A7.33,7.33,0,0,1,25,13.36c0,1.2,4.28,3.45,2.92-.15-.21-.56-.45-1,.73-2,.65-.6-1.46-.9-1.46-.9"/><path class="cls-20" d="M24.45,10.91A7.33,7.33,0,0,1,25,13.36c0,.4.45.91,1,1.29h0c-.71-1.18,1.44-1,1.48-1.72a1.93,1.93,0,0,1,.41-.91,3.92,3.92,0,0,1,.74-.84l-2.4-.68Z"/><path class="cls-21" d="M30.2,8.81a3.88,3.88,0,0,0-.84-2.05h0a3.23,3.23,0,0,0-5.85,1.88,3.26,3.26,0,0,0,6.3,1A1.14,1.14,0,0,0,30.2,8.81Z"/><path class="cls-22" d="M26,10.54c.38-1,3-1.84,3-1.84l-5.16-1-.3.72s0,.51.18,1.37a3.19,3.19,0,0,0,3,1.9A.86.86,0,0,1,26,10.54Z"/><path class="cls-23" d="M22.88,20.52l-3.41-1.85c-1.85,2.56-3,5.28,1.8,6.63C17.1,22.66,22.88,20.52,22.88,20.52Z"/><path class="cls-24" d="M25.69,8.88h0a.28.28,0,0,1-.36-.21c-.06-.27-.19-.6-.51-.57A1,1,0,0,0,24,9.26a1.42,1.42,0,0,0,.5.79s.4.25,0,.8a.13.13,0,0,1-.22,0c-.47-.6-2.18-3.12.11-5.33C27.07,3,29.07,4.31,29.7,4.61s.46,2.27-1.8,2.31c-1.81,0-2,1.23-2,1.7A.27.27,0,0,1,25.69,8.88Z"/><path class="cls-25" d="M29.8,4.69l.18.49A.94.94,0,0,0,29.8,4.69Z"/><path class="cls-26" d="M30,5.27l0-.09c0,.2-.14.4-.61.46-1,.13-3.21-.48-4.16.83-.64.87.49,1.71.56,2.18a.33.33,0,0,0,.11.18h0s-.24-1.86,2-1.89C29.46,6.89,30,5.95,30,5.27Z"/><path class="cls-27" d="M29.33,9.29c-.77,0,.15.22.48.37v0a1.15,1.15,0,0,0,.39-.78C30.18,9,30.07,9.29,29.33,9.29Z"/><path class="cls-28" d="M30.18,8.57A.19.19,0,0,0,30,8.42a1.51,1.51,0,0,0-.47.11c-.74.27-3.54,1.36-4-.2s.49-1.79,3.3-2.26,1.66,2.68,1.34,2.57Z"/><path class="cls-29" d="M25.87,7.2a5.29,5.29,0,0,0-2.44,1.86.66.66,0,0,0,.24.69,5.37,5.37,0,0,1,2.78-1.52"/><path class="cls-30" d="M24.14,8.73a.83.83,0,0,0,.46.88c.57.24.66-.56.43-.64a.32.32,0,0,1-.2-.34Z"/><path class="cls-31" d="M30.45,8.33c.33-.76.52-2.62-1.6-2.26a19.2,19.2,0,0,0-2.05.42,1.13,1.13,0,0,0-.46.25,1,1,0,0,0-.21,1.2c.39,1.05,1.8.67,2.9.33S30.35,8.28,30.45,8.33Z"/><path class="cls-32" d="M44.29,11.57l-.24,1.24a.18.18,0,0,0,.11.2l.17.07a.18.18,0,0,0,.14,0h0a.18.18,0,0,0,.11-.2l0-.24-.13-.31V11.8"/><path class="cls-33" d="M45,10.3c-.63,0-1.13.8-1.13,1.78s.51,1.78,1.13,1.78,1.13-.8,1.13-1.78S45.63,10.3,45,10.3Zm0,2.93c-.35,0-.64-.52-.64-1.15s.28-1.15.64-1.15.64.52.64,1.15S45.35,13.23,45,13.23Z"/><path class="cls-34" d="M44.86,11.25l-.16,0a.55.55,0,0,0-.37.22l0,0a.37.37,0,0,0-.06.28l.13.78v0a.33.33,0,0,0,.33.33h0a.33.33,0,0,0,.28-.16l.08-.14a.33.33,0,0,0,0-.17v-1A.23.23,0,0,0,44.86,11.25Z"/><path class="cls-35" d="M23.77,14.73a12.24,12.24,0,0,0-4.26,3.89c-2,2.71-3.21,5.61,2.58,6.89s5.9.85,5.9.85l.27-.67s-7.45-2-6.91-3.42c.77-2.07,4-2.45,4.14-4.43S25.22,14.74,23.77,14.73Z"/><path class="cls-36" d="M22.88,20.52l-3.41-1.85c-1.85,2.56-3,5.28,1.8,6.63C17.1,22.66,22.88,20.52,22.88,20.52Z"/><path class="cls-37" d="M25.66,17.94c.18-2-.28-3.48-1.73-3.48,0,0-1.88.89-4.43,4.16l-.1.16a8.74,8.74,0,0,0,3.48,1.75C24,19.71,25.55,19.2,25.66,17.94Z"/><path class="cls-38" d="M28.25,24.82l.1-.06a1.32,1.32,0,0,0-.44.25A1.77,1.77,0,0,0,28.25,24.82Z"/><path class="cls-38" d="M27.34,27.12a.64.64,0,0,0,.65-.05,3,3,0,0,1-.86-.3A.52.52,0,0,0,27.34,27.12Z"/><path class="cls-16" d="M26.3,25.15l-1,1a3.55,3.55,0,0,1,1,.28,2.42,2.42,0,0,1,.32-1.19A2.94,2.94,0,0,1,26.3,25.15Z"/><path class="cls-39" d="M27.91,25a1.32,1.32,0,0,1,.44-.25c.41-.2.81.18,1,.47h0a1.21,1.21,0,0,0-.49-1.11c-.62-.39-1.59,0-2.16.94l-.08.14A2.78,2.78,0,0,0,27.91,25Z"/><path class="cls-40" d="M28,27.06a.64.64,0,0,1-.65.05.52.52,0,0,1-.22-.36c-.25-.12-.5-.25-.78-.37a1.18,1.18,0,0,0,.49,1A1.47,1.47,0,0,0,28.57,27,1.18,1.18,0,0,1,28,27.06Z"/><path class="cls-41" d="M27.44,25.56a2.28,2.28,0,0,1,.47-.55,2.78,2.78,0,0,1-1.25.19,2.42,2.42,0,0,0-.32,1.19c.28.12.53.25.78.37A1.79,1.79,0,0,1,27.44,25.56Z"/><path class="cls-42" d="M29.72,25.57a4.21,4.21,0,0,1-.32-.33h0c-.23-.29-.63-.66-1-.47l-.1.06a1.77,1.77,0,0,1-.34.19,2.28,2.28,0,0,0-.47.55,1.79,1.79,0,0,0-.32,1.2,3,3,0,0,0,.86.3,1.18,1.18,0,0,0,.59-.06,1.56,1.56,0,0,0,.5-.32C29.87,26,29.83,25.68,29.72,25.57Z"/><path class="cls-43" d="M44.51,11h0a.09.09,0,0,0-.14,0l-.42.34a1.2,1.2,0,0,0-.38.55l-.25.76.26.29.46-.4a.59.59,0,0,0,.21-.41l0-.37a.36.36,0,0,1,.05-.16l.13-.22A.41.41,0,0,0,44.51,11Z"/><ellipse class="cls-44" cx="29.78" cy="19.64" rx="1.85" ry="2.98" transform="translate(-4.49 9.75) rotate(-17.31)"/><polygon class="cls-45" points="58.84 15.99 58.84 10.4 54 7.61 49.16 10.4 49.16 15.99 54 18.78 58.84 15.99"/><polygon class="cls-46" points="58.84 15.99 58.84 10.4 54 7.61 54 18.78 58.84 15.99"/><polygon class="cls-47" points="49.16 10.4 54 13.19 58.84 10.4 54 7.61 49.16 10.4"/><circle class="cls-48" cx="14.74" cy="38" r="2.74"/></g></g></svg>