<svg width="79" height="26" viewBox="0 0 79 26" fill="none" xmlns="http://www.w3.org/2000/svg">
<path d="M7.572 21.36C8.82 21.36 9.96 21.04 10.992 20.4C12.032 19.752 12.8 18.84 13.296 17.664L10.44 16.8C9.864 18.032 8.852 18.648 7.404 18.648C6.42 18.648 5.644 18.364 5.076 17.796C4.508 17.22 4.168 16.396 4.056 15.324H13.44C13.552 13.764 13.38 12.412 12.924 11.268C12.468 10.124 11.768 9.24 10.824 8.616C9.888 7.992 8.748 7.68 7.404 7.68C6.132 7.68 5.012 7.968 4.044 8.544C3.076 9.112 2.32 9.92 1.776 10.968C1.232 12.016 0.96 13.248 0.96 14.664C0.96 15.976 1.236 17.136 1.788 18.144C2.348 19.152 3.124 19.94 4.116 20.508C5.108 21.076 6.26 21.36 7.572 21.36ZM7.524 10.212C8.42 10.212 9.108 10.448 9.588 10.92C10.076 11.384 10.384 12.124 10.512 13.14H4.128C4.472 11.188 5.604 10.212 7.524 10.212ZM18.6728 21H21.5768L26.2808 8.04H23.3768L20.1248 17.436L16.8608 8.04H13.9688L18.6728 21ZM33.2096 21.36C34.5056 21.36 35.6376 21.072 36.6056 20.496C37.5736 19.912 38.3256 19.108 38.8616 18.084C39.4056 17.052 39.6776 15.864 39.6776 14.52C39.6776 13.184 39.4096 12.004 38.8736 10.98C38.3376 9.948 37.5856 9.14 36.6176 8.556C35.6496 7.972 34.5136 7.68 33.2096 7.68C31.9376 7.68 30.8176 7.968 29.8496 8.544C28.8816 9.12 28.1256 9.92 27.5816 10.944C27.0376 11.968 26.7656 13.16 26.7656 14.52C26.7656 15.856 27.0296 17.04 27.5576 18.072C28.0936 19.096 28.8456 19.9 29.8136 20.484C30.7816 21.068 31.9136 21.36 33.2096 21.36ZM33.2096 18.648C32.0976 18.648 31.2536 18.276 30.6776 17.532C30.1096 16.78 29.8256 15.776 29.8256 14.52C29.8256 13.296 30.0976 12.304 30.6416 11.544C31.1936 10.776 32.0496 10.392 33.2096 10.392C34.3456 10.392 35.1976 10.768 35.7656 11.52C36.3336 12.264 36.6176 13.264 36.6176 14.52C36.6176 15.736 36.3336 16.728 35.7656 17.496C35.2056 18.264 34.3536 18.648 33.2096 18.648ZM46.7856 25.872V21.24C45.8896 21.128 45.0816 20.848 44.3616 20.4C43.6416 19.936 43.0656 19.328 42.6336 18.576C42.2176 17.808 42.0096 16.912 42.0096 15.888V8.76H43.6896V15.816C43.6896 16.68 43.8736 17.416 44.2416 18.024C44.6256 18.616 45.1136 19.072 45.7056 19.392C46.2976 19.696 46.9296 19.848 47.6016 19.848C48.2896 19.848 48.9296 19.688 49.5216 19.368C50.1296 19.048 50.6176 18.592 50.9856 18C51.3696 17.392 51.5616 16.664 51.5616 15.816V8.76H53.2176V15.888C53.2176 16.912 53.0016 17.808 52.5696 18.576C52.1536 19.328 51.5856 19.936 50.8656 20.4C50.1456 20.848 49.3456 21.12 48.4656 21.216V25.872H46.7856ZM60.5878 21C59.4998 21 58.6438 20.688 58.0198 20.064C57.4118 19.44 57.1078 18.592 57.1078 17.52V10.2H54.9718V8.76H57.1078V5.688H58.7878V8.76H63.3238V10.2H58.7878V17.328C58.7878 18.032 58.9638 18.576 59.3158 18.96C59.6678 19.344 60.2038 19.536 60.9238 19.536H63.2758V21H60.5878ZM65.5886 21V8.76H67.2686V21H65.5886ZM66.4286 6.552C66.1086 6.552 65.8286 6.432 65.5886 6.192C65.3486 5.952 65.2286 5.672 65.2286 5.352C65.2286 5.032 65.3486 4.752 65.5886 4.512C65.8286 4.272 66.1086 4.152 66.4286 4.152C66.7646 4.152 67.0446 4.272 67.2686 4.512C67.5086 4.752 67.6286 5.032 67.6286 5.352C67.6286 5.672 67.5086 5.952 67.2686 6.192C67.0446 6.432 66.7646 6.552 66.4286 6.552ZM76.4278 21C75.1638 21 74.0358 20.728 73.0438 20.184C72.0518 19.64 71.2678 18.912 70.6918 18C70.1158 17.072 69.8278 16.032 69.8278 14.88C69.8278 13.728 70.1158 12.696 70.6918 11.784C71.2678 10.856 72.0518 10.12 73.0438 9.576C74.0358 9.032 75.1638 8.76 76.4278 8.76H77.8198V10.224H76.3078C75.4278 10.224 74.6198 10.432 73.8838 10.848C73.1638 11.248 72.5878 11.8 72.1558 12.504C71.7398 13.208 71.5318 14 71.5318 14.88C71.5318 15.76 71.7398 16.552 72.1558 17.256C72.5878 17.96 73.1638 18.52 73.8838 18.936C74.6198 19.336 75.4278 19.536 76.3078 19.536H77.8198V21H76.4278Z" fill="white"/>
</svg>
