<svg width="64" height="64" viewBox="0 0 64 64" fill="none" xmlns="http://www.w3.org/2000/svg">
<path d="M16.72 42.5C26.26 41.2 20.5 29.2 20.29 28.72L28 35.62C31.35 30.68 29.79 33.49 28.37 28.52C28.2382 28.056 28.2487 27.5631 28.4 27.1051C28.5514 26.6471 28.8368 26.2451 29.2191 25.9511C29.6015 25.657 30.0633 25.4845 30.5448 25.4558C31.0263 25.427 31.5054 25.5435 31.92 25.79L34 27C34 27 50.32 34.7 49.81 45.54C49.5795 47.8264 50.1793 50.1194 51.5 52C46.7866 56.6068 40.5992 59.4032 34.027 59.8971C27.4547 60.391 20.9189 58.5506 15.57 54.7C15.2686 53.6386 15.0315 52.56 14.86 51.47C14.26 47.62 14 42.87 16.72 42.5Z" fill="#161A49"/>
<path d="M44.8398 50.48C44.4089 51.1849 43.8915 51.8333 43.2998 52.41C43.2998 52.41 44.2098 52.91 43.2998 53.32C42.3898 53.73 39.4898 52.17 43.1598 49.54" fill="#F9AA8F"/>
<path d="M16.72 42.5C26.26 41.2 20.5 29.2 20.29 28.72L28 35.62C31.35 30.68 29.79 33.49 28.37 28.52C28.2382 28.056 28.2487 27.5631 28.4 27.1051C28.5514 26.6471 28.8368 26.2451 29.2191 25.9511C29.6015 25.657 30.0633 25.4845 30.5448 25.4558C31.0263 25.427 31.5054 25.5435 31.92 25.79L34 27C34 27 50.32 34.7 49.81 45.54C49.5795 47.8264 50.1793 50.1194 51.5 52C50.2119 53.2621 48.8055 54.3973 47.3 55.39C46.3 53.56 46.12 51.22 46.4 48.28C47.14 40.63 38.34 40.65 38.52 48.89C38.58 51.62 39.73 54.96 41.31 58.37C35.3971 60.4739 28.9488 60.5302 23 58.53C22.1101 55.8736 21.4968 53.1324 21.17 50.35C20.29 43.18 14.39 44.14 14.71 50.35C14.24 46.73 14.26 42.83 16.72 42.5Z" fill="url(#paint0_linear)"/>
<path d="M16.5501 8.59998C17.3596 12.181 18.755 15.6037 20.6801 18.73C21.3601 19.73 23.6801 21.56 24.8901 22.96C27.4901 25.96 29.4901 26.11 33.3201 26.48C36.3757 27.3014 38.9908 29.2816 40.6101 32C43.2601 36.9 50.6101 45.34 44.3601 51.16L42.6401 49.91C42.6401 49.91 46.4501 43.1 35.5401 37.09C34.9101 36.74 35.0601 38.71 35.4301 40.85C35.4301 41.01 35.4601 41.17 35.5201 41.33C35.5801 41.49 35.6201 41.6466 35.6401 41.8C35.6801 41.9533 35.7267 42.1066 35.7801 42.26C35.8334 42.4133 35.8867 42.5666 35.9401 42.72C36.0001 42.8733 36.0601 43.0233 36.1201 43.17C36.3901 43.78 36.8201 44.3 37.1201 44.88C37.4865 45.554 37.7815 46.2646 38.0001 47C38.2301 47.77 38.3701 48.57 38.5501 49.35L38.6601 49.8C38.9901 51.15 39.3301 52.49 39.7401 53.8C40.0885 55.0089 40.5298 56.1891 41.0601 57.33L41.5401 58.33C39.6004 59.0377 37.588 59.5274 35.5401 59.79C33.7617 57.4463 32.135 54.9913 30.6701 52.44C30.4701 52.81 30.2801 53.18 30.1201 53.55C30.0501 53.71 29.9801 53.91 29.9101 54.07C29.1785 55.9044 28.8675 57.8795 29.0001 59.85C27.1016 59.6526 25.2284 59.2605 23.4101 58.68C22.7693 54.2173 23.0691 49.6699 24.2901 45.33C25.0797 42.2894 24.8153 39.0709 23.5401 36.2L19.0001 26C18.6301 25.16 18.2301 24.34 17.8101 23.53C15.4001 18.83 15.4101 15.64 14.8801 9.72997C15.4334 9.34997 15.9901 8.97331 16.5501 8.59998Z" fill="url(#paint1_linear)"/>
<path d="M26.0005 51C28.3705 49.23 30.1905 51.59 30.7305 52.41C30.5305 52.78 30.3405 53.15 30.1805 53.51C30.1105 53.67 30.0405 53.87 29.9705 54.03C29.2454 55.8831 28.948 57.876 29.1005 59.86C27.9122 59.7358 26.7331 59.5354 25.5705 59.26C24.7505 56.24 24.1205 52.36 26.0005 51Z" fill="url(#paint2_linear)"/>
<path d="M29.4396 29.48C29.4396 29.48 26.9296 30.69 26.4396 29.48C26.0822 28.3259 25.8345 27.1406 25.6996 25.94C25.6996 25.94 22.9996 22 20.7696 18.74C21.4796 19.74 23.7696 21.55 24.9596 22.94C27.5496 25.94 29.5496 26.09 33.3696 26.46L33.5996 26.73L29.4396 29.48Z" fill="url(#paint3_linear)"/>
<path d="M39.3398 34.65C34.2298 32.86 37.0398 29.65 34.7998 29.2C33.0643 29.0055 31.3075 29.1551 29.6298 29.64L31.8998 27.32L33.8998 26.61C36.7483 27.5021 39.162 29.4239 40.6698 32C41.7498 34 43.6098 36.58 45.0098 39.34C43.7566 37.1361 41.7395 35.4677 39.3398 34.65V34.65Z" fill="url(#paint4_linear)"/>
<path d="M38.0903 47.2C38.7403 49.69 39.5503 53.91 41.0903 57.33L41.5703 58.33C40.9803 58.55 40.3803 58.74 39.7803 58.91C38.2803 56 37.1203 52.91 37.7803 51.15C38.4121 49.2848 38.2901 47.2465 37.4403 45.47C37.7135 46.0238 37.9312 46.6033 38.0903 47.2Z" fill="url(#paint5_linear)"/>
<path d="M26.9099 23.26C26.9727 23.2269 27.0253 23.1772 27.0619 23.1164C27.0986 23.0556 27.118 22.986 27.118 22.915C27.118 22.844 27.0986 22.7743 27.0619 22.7135C27.0253 22.6527 26.9727 22.6031 26.9099 22.57C26.3798 22.3307 25.901 21.9911 25.4999 21.57C25.2899 21.27 25.5999 20.76 25.9799 20.19C26.1099 19.99 26.2999 19.69 26.4499 19.43C26.5206 19.3141 26.5519 19.1785 26.5393 19.0434C26.5267 18.9082 26.4708 18.7808 26.3799 18.68C26.329 18.6359 26.2882 18.5813 26.2603 18.5201C26.2324 18.4588 26.2179 18.3923 26.2179 18.325C26.2179 18.2577 26.2324 18.1911 26.2603 18.1299C26.2882 18.0686 26.329 18.0141 26.3799 17.97C27.3799 16.91 30.2699 15.83 31.2899 16.13C35.7699 17.41 33.9999 19.26 33.9999 19.26L32.4099 22.47C32.0712 23.1606 32.0013 23.9524 32.2138 24.6917C32.4263 25.4309 32.9061 26.0647 33.5599 26.47H33.6099C33.6099 26.47 29.3499 26.89 28.2699 26.54C26.7999 26.08 24.9399 22.88 24.9399 22.88C25.1912 23.1352 25.5141 23.3082 25.8658 23.3761C26.2176 23.4439 26.5816 23.4034 26.9099 23.26V23.26Z" fill="#F9AA8F"/>
<path d="M27.6404 25.78C27.7104 25.37 29.1104 25.78 29.2004 24.73C29.2904 23.68 27.0004 22.67 27.0004 22.67C26.9706 22.6298 26.9332 22.5958 26.8904 22.57C26.5418 22.3927 26.2075 22.1888 25.8904 21.96L25.4604 21.55C25.9014 21.6971 26.3756 21.7141 26.826 21.5988C27.2765 21.4835 27.6842 21.2409 28.0004 20.9C29.1804 19.74 30.0604 18.12 29.0904 17.85C28.1204 17.58 26.3604 19.57 26.3604 19.57L26.4504 19.42C26.521 19.3041 26.5524 19.1685 26.5398 19.0334C26.5272 18.8983 26.4713 18.7708 26.3804 18.67C26.3377 18.6247 26.3007 18.5743 26.2704 18.52V18.4C26.2704 18.4 26.4904 18.83 26.8904 18.4C27.5267 17.8975 28.1947 17.4366 28.8904 17.02C29.4304 16.56 28.6903 16.66 28.6903 16.66L28.7803 16.61C29.5639 16.2461 30.4303 16.0977 31.2904 16.18C32.3047 16.3723 33.2441 16.8472 34.0004 17.55L34.1104 19.12C34.0777 19.1728 34.0409 19.223 34.0004 19.27L32.4104 22.48C32.0716 23.1706 32.0017 23.9625 32.2143 24.7017C32.4268 25.4409 32.9066 26.0748 33.5604 26.48H33.6104C33.6104 26.48 31.0404 26.73 29.3904 26.68L28.3904 26.59H28.2904C28.0004 26.52 27.5704 26.16 27.6404 25.78Z" fill="url(#paint6_linear)"/>
<path d="M44.29 34.16C44.29 34.16 35 24.63 30.11 29.59C30.0485 29.6526 29.9676 29.6925 29.8805 29.7034C29.7934 29.7143 29.7051 29.6955 29.63 29.65V29.65C29.5846 29.6218 29.5454 29.5844 29.515 29.5404C29.4846 29.4963 29.4635 29.4465 29.4532 29.394C29.4429 29.3414 29.4435 29.2873 29.455 29.235C29.4665 29.1827 29.4886 29.1334 29.52 29.09C30.12 28.26 31.8 26.25 34.03 26.32C37.1 26.42 44.29 34.16 44.29 34.16Z" fill="url(#paint7_linear)"/>
<path d="M23.6399 21.59C24.861 23.3153 25.5178 25.3764 25.5199 27.49C25.5137 27.5657 25.5329 27.6412 25.5746 27.7046C25.6163 27.7681 25.678 27.8157 25.7499 27.84C25.7988 27.8552 25.8505 27.8592 25.9011 27.8516C25.9518 27.844 26 27.8251 26.0423 27.7963C26.0846 27.7674 26.1199 27.7294 26.1454 27.685C26.171 27.6407 26.1862 27.5911 26.1899 27.54C26.2499 26.3 26.3299 22.84 25.2799 22.43C24.7082 22.202 24.1591 21.9208 23.6399 21.59V21.59Z" fill="url(#paint8_linear)"/>
<path d="M32.4396 35.6C32.3882 35.4203 32.3882 35.2297 32.4396 35.05C32.4565 34.9463 32.5069 34.851 32.5831 34.7787C32.6593 34.7064 32.7571 34.6611 32.8616 34.6497C32.966 34.6384 33.0713 34.6616 33.1613 34.7159C33.2512 34.7701 33.3209 34.8523 33.3596 34.95C33.7866 35.884 34.5564 36.618 35.5096 37C34.9896 36.89 35.1396 38.76 35.5096 40.79C35.5096 40.95 35.5396 41.11 35.5996 41.27C35.6596 41.43 35.6996 41.5867 35.7196 41.74C35.7596 41.8933 35.8063 42.05 35.8596 42.21C35.913 42.37 35.9596 42.5333 35.9996 42.7C36.0596 42.8533 36.1196 43.0033 36.1796 43.15L36.3896 43.59L36.6196 44.02L36.8896 44.48C36.7796 44.34 36.6796 44.2 36.5796 44.06L36.2896 43.65L36.0296 43.27L35.7896 42.91L35.5696 42.57L35.3696 42.25L35.1896 41.95L35.0196 41.66C34.7659 41.2465 34.5356 40.8192 34.3296 40.38C34.1733 39.9233 33.9132 39.5091 33.5696 39.17C32.9862 38.8313 32.3111 38.6844 31.6396 38.75L29.6396 38.62C28.3127 38.5884 26.9924 38.4209 25.6996 38.12C24.8296 37.87 24.6096 39.3 24.6096 39.3C24.4029 38.2139 24.0672 37.1565 23.6096 36.15L21.1596 30.63C23.6396 37.58 32.6896 36.24 32.4396 35.6Z" fill="url(#paint9_linear)"/>
<path d="M27.5498 16.84C27.378 16.8225 27.2121 16.7678 27.0636 16.6797C26.9151 16.5917 26.7876 16.4723 26.6898 16.33C26.6738 16.2964 26.6685 16.2587 26.6748 16.222C26.6811 16.1853 26.6986 16.1515 26.7249 16.1252C26.7513 16.0989 26.7851 16.0813 26.8218 16.075C26.8585 16.0688 26.8962 16.074 26.9298 16.09C27.1998 16.24 27.6098 16.27 28.1698 15.71C29.1698 14.71 30.3898 12.77 33.9098 17.4C34.0398 17.57 34.1898 17.74 34.3398 17.9C34.6898 18.28 35.2798 19.42 34.3398 20.01C33.2707 20.9544 32.4964 22.1869 32.1098 23.56C32.1056 23.58 32.0959 23.5983 32.0818 23.6131C32.0678 23.6278 32.0499 23.6384 32.0302 23.6435C32.0105 23.6487 31.9897 23.6483 31.9703 23.6424C31.9508 23.6365 31.9333 23.6253 31.9198 23.61C31.5198 23.19 30.6298 22.1 31.2998 21.4C32.1498 20.52 32.2998 19.46 31.3898 19.4C31.1891 19.377 30.9861 19.4153 30.8076 19.51C30.6291 19.6046 30.4834 19.751 30.3898 19.93C30.3619 19.9755 30.3239 20.014 30.2788 20.0426C30.2336 20.0712 30.1826 20.089 30.1295 20.0948C30.0764 20.1006 30.0227 20.0942 29.9725 20.076C29.9223 20.0578 29.8769 20.0284 29.8398 19.99V19.99C29.7815 19.9257 29.7492 19.8419 29.7492 19.755C29.7492 19.6682 29.7815 19.5844 29.8398 19.52C30.2498 19.07 30.9998 18.04 30.1198 17.18C29.8882 16.9148 29.5764 16.7323 29.2318 16.6602C28.8872 16.588 28.5284 16.6301 28.2098 16.78C27.9998 16.8616 27.7711 16.8824 27.5498 16.84V16.84Z" fill="url(#paint10_linear)"/>
<path d="M30.0003 33.16C29.0757 33.6022 28.0205 33.6876 27.0369 33.3997C26.0533 33.1118 25.2106 32.4709 24.6703 31.6C24.6191 31.5129 24.546 31.4407 24.4583 31.3905C24.3706 31.3404 24.2714 31.314 24.1703 31.314C24.0693 31.314 23.97 31.3404 23.8823 31.3905C23.7946 31.4407 23.7215 31.5129 23.6703 31.6V31.6C23.6137 31.6917 23.5836 31.7973 23.5836 31.905C23.5836 32.0128 23.6137 32.1184 23.6703 32.21L26.6203 37.27C26.6643 37.3456 26.7247 37.4104 26.7972 37.4593C26.8697 37.5082 26.9523 37.5402 27.0389 37.5527C27.1254 37.5652 27.2137 37.5579 27.2971 37.5315C27.3805 37.5051 27.4568 37.4601 27.5203 37.4L30.7503 34.35C30.8465 34.2594 30.9089 34.1386 30.9271 34.0076C30.9453 33.8767 30.9182 33.7435 30.8503 33.63L30.7003 33.38C30.6269 33.2683 30.5171 33.1854 30.3895 33.1453C30.262 33.1052 30.1245 33.1104 30.0003 33.16Z" fill="url(#paint11_linear)"/>
<path d="M50.8799 19.9C50.8799 19.58 50.2799 19.29 49.3199 19.09C48.9668 19.0103 48.633 18.8615 48.3378 18.6521C48.0426 18.4427 47.7918 18.1769 47.5999 17.87C47.4263 17.6038 47.1891 17.3851 46.9098 17.2338C46.6304 17.0824 46.3176 17.0031 45.9999 17.0031C45.6821 17.0031 45.3694 17.0824 45.09 17.2338C44.8106 17.3851 44.5734 17.6038 44.3999 17.87L44.3199 17.98C44.086 18.2947 43.7854 18.5539 43.4397 18.7389C43.0939 18.9238 42.7115 19.0301 42.3199 19.05C40.3199 19.18 38.7999 19.61 38.7999 20.11C38.7999 20.43 39.3999 20.72 40.3599 20.92C40.7129 20.9997 41.0467 21.1485 41.3419 21.3579C41.6372 21.5673 41.888 21.8331 42.0799 22.14C42.2534 22.4062 42.4906 22.6249 42.77 22.7762C43.0494 22.9276 43.3621 23.0069 43.6799 23.0069C43.9976 23.0069 44.3104 22.9276 44.5898 22.7762C44.8691 22.6249 45.1063 22.4062 45.2799 22.14V22.14C45.5159 21.8031 45.8262 21.525 46.1869 21.3274C46.5476 21.1297 46.9489 21.0177 47.3599 21C49.3999 20.82 50.8799 20.4 50.8799 19.9Z" fill="url(#paint12_linear)"/>
<path d="M48.1504 27.44C48.1504 27.13 48.7404 26.84 49.6904 26.64C50.0388 26.5618 50.3684 26.4156 50.6601 26.2097C50.9519 26.0037 51.2 25.7422 51.3904 25.44C51.5623 25.178 51.7968 24.9629 52.0726 24.814C52.3484 24.6651 52.6569 24.5872 52.9704 24.5872C53.2838 24.5872 53.5923 24.6651 53.8681 24.814C54.1439 24.9629 54.3784 25.178 54.5504 25.44L54.6304 25.55C54.8648 25.8626 55.1659 26.119 55.5119 26.3007C55.8578 26.4823 56.2399 26.5845 56.6304 26.6C58.6304 26.73 60.1104 27.15 60.1104 27.6C60.1104 27.91 59.5204 28.2 58.5704 28.4C58.2219 28.4781 57.8923 28.6244 57.6006 28.8303C57.3088 29.0363 57.0607 29.2978 56.8704 29.6C56.6984 29.862 56.4639 30.0771 56.1881 30.226C55.9123 30.3749 55.6038 30.4528 55.2904 30.4528C54.9769 30.4528 54.6684 30.3749 54.3926 30.226C54.1168 30.0771 53.8823 29.862 53.7104 29.6V29.6C53.4858 29.2694 53.1891 28.9942 52.8426 28.795C52.4962 28.5958 52.109 28.4778 51.7104 28.45C49.6204 28.35 48.1504 27.94 48.1504 27.44Z" fill="url(#paint13_linear)"/>
<path d="M18.5996 33.1C18.5996 32.79 18.0096 32.5 17.0596 32.3C16.7112 32.2218 16.3816 32.0756 16.0898 31.8696C15.7981 31.6637 15.5499 31.4021 15.3596 31.1C15.1876 30.838 14.9532 30.6228 14.6773 30.474C14.4015 30.3251 14.093 30.2471 13.7796 30.2471C13.4662 30.2471 13.1577 30.3251 12.8819 30.474C12.6061 30.6228 12.3716 30.838 12.1996 31.1L12.1196 31.21C11.8852 31.5226 11.584 31.779 11.2381 31.9606C10.8921 32.1423 10.51 32.2445 10.1196 32.26C8.11961 32.39 6.63961 32.81 6.63961 33.26C6.63961 33.57 7.22961 33.86 8.17961 34.06C8.52806 34.1381 8.85763 34.2844 9.14938 34.4903C9.44112 34.6962 9.68929 34.9578 9.87961 35.26C10.0516 35.522 10.2861 35.7371 10.5619 35.886C10.8377 36.0349 11.1462 36.1128 11.4596 36.1128C11.773 36.1128 12.0815 36.0349 12.3573 35.886C12.6332 35.7371 12.8676 35.522 13.0396 35.26V35.26C13.2642 34.9294 13.5609 34.6541 13.9073 34.4549C14.2538 34.2557 14.6409 34.1378 15.0396 34.11C17.1296 34 18.5996 33.59 18.5996 33.1Z" fill="url(#paint14_linear)"/>
<path d="M18.9995 9.92002C18.9995 9.67002 19.4595 9.45002 20.2095 9.29002C20.4822 9.22875 20.7401 9.11415 20.9684 8.95283C21.1967 8.79151 21.3908 8.58664 21.5395 8.35002C21.674 8.14367 21.8578 7.97414 22.0743 7.85679C22.2909 7.73944 22.5332 7.67798 22.7795 7.67798C23.0258 7.67798 23.2682 7.73944 23.4847 7.85679C23.7013 7.97414 23.8851 8.14367 24.0195 8.35002L23.9995 8.43002C24.1796 8.6729 24.4109 8.87317 24.677 9.01661C24.9432 9.16006 25.2377 9.24316 25.5395 9.26002C27.1095 9.36002 28.2695 9.69002 28.2695 10.08C28.2695 10.47 27.8095 10.55 27.0595 10.71C26.7868 10.7713 26.5289 10.8859 26.3007 11.0472C26.0724 11.2085 25.8783 11.4134 25.7295 11.65C25.5951 11.8564 25.4113 12.0259 25.1947 12.1432C24.9782 12.2606 24.7358 12.3221 24.4895 12.3221C24.2432 12.3221 24.0009 12.2606 23.7843 12.1432C23.5678 12.0259 23.384 11.8564 23.2495 11.65C23.07 11.3871 22.8323 11.169 22.5548 11.013C22.2773 10.8569 21.9675 10.7669 21.6495 10.75C20.1095 10.64 18.9995 10.31 18.9995 9.92002Z" fill="url(#paint15_linear)"/>
<path d="M16.6197 8.70998L16.7197 5.99998C16.09 5.43826 15.5142 4.8189 14.9997 4.14998C14.6497 3.55998 14.5597 4.85998 14.9397 5.37998C15.1251 5.62696 15.2475 5.91541 15.2963 6.22034C15.3451 6.52527 15.3188 6.83749 15.2197 7.12998C14.9997 7.48998 14.7097 5.87998 14.4397 6.42998C14.1697 6.97998 14.8897 8.89998 14.8897 8.89998L16.6197 8.70998Z" fill="#F9AA8F"/>
<path d="M17.5498 12.09C16.924 12.2384 16.2829 12.3123 15.6398 12.31H15.1298C15.0398 11.31 14.9498 10.15 14.8298 8.90998L16.5598 8.59998C16.8299 9.77948 17.1603 10.9443 17.5498 12.09V12.09Z" fill="url(#paint16_linear)"/>
<defs>
<linearGradient id="paint0_linear" x1="51.5" y1="42.72" x2="14.46" y2="42.72" gradientUnits="userSpaceOnUse">
<stop stop-color="#082338"/>
<stop offset="1" stop-color="#09283F"/>
</linearGradient>
<linearGradient id="paint1_linear" x1="-5.28994" y1="21.3" x2="53.5501" y2="50.03" gradientUnits="userSpaceOnUse">
<stop stop-color="#7FF1A4"/>
<stop offset="0.52" stop-color="#2FBCA4"/>
<stop offset="1" stop-color="#2F7DA4"/>
</linearGradient>
<linearGradient id="paint2_linear" x1="-357.133" y1="523.972" x2="-145.347" y2="547.776" gradientUnits="userSpaceOnUse">
<stop stop-color="#7FF1A4"/>
<stop offset="0.52" stop-color="#2FBCA4"/>
<stop offset="1" stop-color="#2F7DA4"/>
</linearGradient>
<linearGradient id="paint3_linear" x1="-779.053" y1="677.588" x2="-447.394" y2="169.85" gradientUnits="userSpaceOnUse">
<stop stop-color="#7FF1A4"/>
<stop offset="0.52" stop-color="#2FBCA4"/>
<stop offset="1" stop-color="#2F7DA4"/>
</linearGradient>
<linearGradient id="paint4_linear" x1="-742.139" y1="885.248" x2="-377.245" y2="292.139" gradientUnits="userSpaceOnUse">
<stop stop-color="#7FF1A4"/>
<stop offset="0.52" stop-color="#2FBCA4"/>
<stop offset="1" stop-color="#2F7DA4"/>
</linearGradient>
<linearGradient id="paint5_linear" x1="-223.823" y1="652.689" x2="-75.5932" y2="660.851" gradientUnits="userSpaceOnUse">
<stop stop-color="#7FF1A4"/>
<stop offset="0.52" stop-color="#2FBCA4"/>
<stop offset="1" stop-color="#2F7DA4"/>
</linearGradient>
<linearGradient id="paint6_linear" x1="22.8803" y1="30.11" x2="42.5803" y2="8.78" gradientUnits="userSpaceOnUse">
<stop stop-color="#F9AA8F"/>
<stop offset="1" stop-color="#F78E6B"/>
</linearGradient>
<linearGradient id="paint7_linear" x1="39.7" y1="25.27" x2="31.04" y2="44.93" gradientUnits="userSpaceOnUse">
<stop offset="0.02" stop-color="#98372A"/>
<stop offset="0.34" stop-color="#6A2922"/>
<stop offset="0.79" stop-color="#301818"/>
<stop offset="1" stop-color="#1A1114"/>
</linearGradient>
<linearGradient id="paint8_linear" x1="-69.0621" y1="145.079" x2="-142.435" y2="213.693" gradientUnits="userSpaceOnUse">
<stop offset="0.02" stop-color="#98372A"/>
<stop offset="0.34" stop-color="#6A2922"/>
<stop offset="0.79" stop-color="#301818"/>
<stop offset="1" stop-color="#1A1114"/>
</linearGradient>
<linearGradient id="paint9_linear" x1="-805.766" y1="958.165" x2="-460.407" y2="338.428" gradientUnits="userSpaceOnUse">
<stop stop-color="#7FF1A4"/>
<stop offset="0.52" stop-color="#2FBCA4"/>
<stop offset="1" stop-color="#2F7DA4"/>
</linearGradient>
<linearGradient id="paint10_linear" x1="30.4198" y1="10.4" x2="31.2598" y2="28.4" gradientUnits="userSpaceOnUse">
<stop stop-color="#182EBD"/>
<stop offset="0.58" stop-color="#0D1226"/>
</linearGradient>
<linearGradient id="paint11_linear" x1="26.8303" y1="40.15" x2="28.8303" y2="8.90002" gradientUnits="userSpaceOnUse">
<stop stop-color="#F7DC8D"/>
<stop offset="0.46" stop-color="#F27C1C"/>
<stop offset="0.99" stop-color="#F2591C"/>
</linearGradient>
<linearGradient id="paint12_linear" x1="6937.21" y1="186.729" x2="6937.21" y2="25.7086" gradientUnits="userSpaceOnUse">
<stop offset="0.02" stop-color="#97EFE7"/>
<stop offset="0.52" stop-color="#3DB6D3"/>
<stop offset="1" stop-color="#3D6FD3"/>
</linearGradient>
<linearGradient id="paint13_linear" x1="-58.174" y1="234.051" x2="-58.174" y2="78.7274" gradientUnits="userSpaceOnUse">
<stop offset="0.02" stop-color="#97EFE7"/>
<stop offset="0.52" stop-color="#3DB6D3"/>
<stop offset="1" stop-color="#3D6FD3"/>
</linearGradient>
<linearGradient id="paint14_linear" x1="7517.96" y1="272.91" x2="7517.96" y2="117.587" gradientUnits="userSpaceOnUse">
<stop offset="0.02" stop-color="#97EFE7"/>
<stop offset="0.52" stop-color="#3DB6D3"/>
<stop offset="1" stop-color="#3D6FD3"/>
</linearGradient>
<linearGradient id="paint15_linear" x1="-423.275" y1="83.8409" x2="-423.275" y2="-12.5238" gradientUnits="userSpaceOnUse">
<stop offset="0.02" stop-color="#97EFE7"/>
<stop offset="0.52" stop-color="#3DB6D3"/>
<stop offset="1" stop-color="#3D6FD3"/>
</linearGradient>
<linearGradient id="paint16_linear" x1="-161.589" y1="15.2781" x2="81.4132" y2="102.298" gradientUnits="userSpaceOnUse">
<stop stop-color="#7FF1A4"/>
<stop offset="0.52" stop-color="#2FBCA4"/>
<stop offset="1" stop-color="#2F7DA4"/>
</linearGradient>
</defs>
</svg>
